<svg width="64" height="64" viewBox="0 0 64 64" fill="none" xmlns="http://www.w3.org/2000/svg">
<path d="M2.99543 29.9273C3.02805 29.9305 3.06043 29.9323 3.09243 29.9323C3.56705 29.9323 3.9743 29.573 4.02392 29.0905C4.66304 22.8695 7.41978 16.9586 11.786 12.4466C15.7371 8.36379 20.8752 5.55868 26.4032 4.43656L23.5238 6.7868C23.1227 7.11417 23.0628 7.7048 23.3903 8.10579C23.5756 8.33292 23.8452 8.45054 24.1171 8.45054C24.3254 8.45054 24.5353 8.38142 24.7093 8.23929L30.7414 3.31582C31.0203 3.0882 31.1443 2.72095 31.0603 2.37095C30.9764 2.02083 30.6993 1.74983 30.3475 1.67346L22.7384 0.0215906C22.2328 -0.0884088 21.7333 0.232714 21.6234 0.738836C21.5136 1.24483 21.8347 1.74408 22.3407 1.85383L25.9005 2.62658C20.0528 3.84144 14.6215 6.8203 10.4386 11.1427C5.78129 15.9554 2.84068 22.2613 2.15868 28.8988C2.10568 29.4139 2.48043 29.8744 2.99543 29.9273Z" fill="#FEB101"/>
<path d="M61.0047 34.0732C60.49 34.0213 60.0292 34.3949 59.9762 34.9099C59.3371 41.131 56.5804 47.0418 52.2141 51.5538C48.263 55.6367 43.1249 58.4416 37.597 59.5639L40.4763 57.2137C40.8774 56.8863 40.9373 56.2957 40.6098 55.8947C40.2825 55.4934 39.6918 55.4337 39.2907 55.7612L33.2586 60.6846C32.9797 60.9123 32.8557 61.2795 32.9397 61.6295C33.0236 61.9796 33.3007 62.2506 33.6525 62.327L41.2616 63.9787C41.3286 63.9934 41.3954 64.0002 41.4613 64.0002C41.8929 64.0002 42.2813 63.7005 42.3766 63.2614C42.4864 62.7554 42.1653 62.2561 41.6593 62.1464L38.0995 61.3736C43.9472 60.1589 49.3785 57.1799 53.5614 52.8576C58.2187 48.0448 61.1593 41.7389 61.8413 35.1014C61.8945 34.5865 61.5198 34.126 61.0047 34.0732Z" fill="#FEB101"/>
<path d="M63.2612 21.6238C62.7555 21.5139 62.2561 21.8351 62.1462 22.3411L61.3735 25.9009C60.1587 20.0532 57.1797 14.6219 52.8574 10.439C48.0447 5.78169 41.7387 2.84108 35.1012 2.15909C34.586 2.10734 34.1259 2.48083 34.0728 2.99583C34.0199 3.51095 34.3945 3.97133 34.9095 4.02433C41.1306 4.66345 47.0414 7.42018 51.5534 11.7864C55.6363 15.7375 58.4412 20.8756 59.5635 26.4036L57.2132 23.5242C56.8859 23.123 56.2952 23.0632 55.8943 23.3907C55.4931 23.7181 55.4334 24.3087 55.7608 24.7098L60.6842 30.7419C60.8646 30.963 61.1327 31.0867 61.4105 31.0867C61.4832 31.0867 61.5565 31.0782 61.6291 31.0607C61.9792 30.9768 62.2502 30.6997 62.3266 30.3479L63.9783 22.7388C64.0885 22.2328 63.7672 21.7337 63.2612 21.6238Z" fill="#FEB101"/>
<path d="M29.0905 59.9765C22.8694 59.3374 16.9585 56.5806 12.4466 52.2144C8.36372 48.2632 5.55873 43.1252 4.43661 37.5972L6.78685 40.4766C7.11422 40.8777 7.70472 40.9375 8.10584 40.6101C8.50696 40.2827 8.56671 39.6921 8.23934 39.291L3.31587 33.2589C3.08825 32.98 2.72087 32.8559 2.371 32.94C2.02088 33.0239 1.74988 33.301 1.6735 33.6528L0.021639 41.262C-0.0882353 41.768 0.232888 42.2672 0.738885 42.377C0.805884 42.3916 0.872759 42.3985 0.938634 42.3985C1.37026 42.3985 1.75863 42.0986 1.85388 41.6596L2.62662 38.0997C3.84137 43.9474 6.82035 49.3788 11.1427 53.5616C15.9554 58.219 22.2614 61.1596 28.8988 61.8416C28.9315 61.8448 28.9638 61.8466 28.9958 61.8466C29.4705 61.8466 29.8777 61.4873 29.9273 61.0048C29.9802 60.4898 29.6056 60.0294 29.0905 59.9765Z" fill="#FEB101"/>
<path d="M19.9719 23.9198C20.8519 23.9198 21.691 24.2984 22.2742 24.9587C22.6169 25.3467 23.2094 25.3834 23.5974 25.0407C23.9854 24.6979 24.0222 24.1054 23.6794 23.7174C22.7405 22.6545 21.3892 22.0449 19.9718 22.0449C17.2448 22.0449 15.0263 24.2635 15.0263 26.9904V37.0105C15.0263 39.7374 17.2449 41.9559 19.9718 41.9559C21.3899 41.9559 22.7417 41.3458 23.6805 40.2821C24.0232 39.8939 23.9862 39.3014 23.598 38.9588C23.2099 38.6162 22.6175 38.6531 22.2748 39.0413C21.6917 39.7021 20.8522 40.0809 19.9718 40.0809C18.2787 40.0809 16.9013 38.7035 16.9013 37.0105V26.9904C16.9013 25.2972 18.2788 23.9198 19.9719 23.9198Z" fill="#FEB101"/>
<path d="M48.0281 41.9553C48.5459 41.9553 48.9656 41.5356 48.9656 41.0178V22.9817C48.9656 22.5129 48.6193 22.116 48.1548 22.0528C47.6902 21.9895 47.2503 22.279 47.1248 22.7308L43.0181 37.5151L38.9113 22.7308C38.7858 22.279 38.347 21.9887 37.8813 22.0528C37.4168 22.116 37.0705 22.5129 37.0705 22.9817V41.0178C37.0705 41.5356 37.4902 41.9553 38.008 41.9553C38.5257 41.9553 38.9455 41.5356 38.9455 41.0178V29.8592L42.1147 41.2687C42.2274 41.6744 42.5968 41.9553 43.0181 41.9553C43.4393 41.9553 43.8087 41.6744 43.9214 41.2687L47.0907 29.8594V41.0178C47.0907 41.5356 47.5104 41.9553 48.0281 41.9553Z" fill="#FEB101"/>
<path d="M33.1222 41.3476C33.2634 41.7239 33.6206 41.9562 34.0001 41.9562C34.1095 41.9562 34.2207 41.9369 34.3291 41.8963C34.8138 41.7144 35.0596 41.1742 34.8777 40.6893L32.1587 33.4389C33.8025 32.6342 34.9373 30.9446 34.9373 28.9944V26.9904C34.9373 24.2634 32.7187 22.0449 29.9919 22.0449H26.9859C26.4681 22.0449 26.0484 22.4647 26.0484 22.9824V28.9946C26.0484 29.5124 26.4681 29.9321 26.9859 29.9321C27.5036 29.9321 27.9234 29.5124 27.9234 28.9946V23.9199H29.9919C31.685 23.9199 33.0624 25.2974 33.0624 26.9904V28.9944C33.0624 30.6875 31.6849 32.0649 29.9919 32.0649H26.9859C26.4681 32.0649 26.0484 32.4846 26.0484 33.0024V41.0184C26.0484 41.5362 26.4681 41.9559 26.9859 41.9559C27.5036 41.9559 27.9234 41.5362 27.9234 41.0184V33.9399H29.9919C30.1088 33.9399 30.2243 33.9344 30.3391 33.9264L33.1222 41.3476Z" fill="#FEB101"/>
</svg>
