<svg width="64" height="65" viewBox="0 0 64 65" fill="none" xmlns="http://www.w3.org/2000/svg">
<g clip-path="url(#clip0_4157_41934)">
<path d="M61 54.4999H60V18.4999C60 17.4391 59.5786 16.4217 58.8284 15.6715C58.0783 14.9214 57.0609 14.4999 56 14.4999H49V8.49994H51C51.1986 8.50109 51.3931 8.44307 51.5586 8.33327C51.7241 8.22347 51.8532 8.06686 51.9294 7.88342C52.0055 7.69998 52.0253 7.49801 51.9863 7.30326C51.9472 7.10851 51.851 6.92981 51.71 6.78994L45.71 0.789939C45.617 0.696211 45.5064 0.621816 45.3846 0.571048C45.2627 0.520279 45.132 0.494141 45 0.494141C44.868 0.494141 44.7373 0.520279 44.6154 0.571048C44.4936 0.621816 44.383 0.696211 44.29 0.789939C37.83 7.25994 37.73 7.03994 38.08 7.87994C38.43 8.71994 39 8.49994 41 8.49994V14.4999H34.41L32.71 12.7899C32.617 12.6962 32.5064 12.6218 32.3846 12.571C32.2627 12.5203 32.132 12.4941 32 12.4941C31.868 12.4941 31.7373 12.5203 31.6154 12.571C31.4936 12.6218 31.383 12.6962 31.29 12.7899L29.59 14.4999H8C6.93913 14.4999 5.92172 14.9214 5.17157 15.6715C4.42143 16.4217 4 17.4391 4 18.4999V54.4999H3C2.20435 54.4999 1.44129 54.816 0.87868 55.3786C0.31607 55.9412 0 56.7043 0 57.4999L0 59.4999C0 60.826 0.526784 62.0978 1.46447 63.0355C2.40215 63.9732 3.67392 64.4999 5 64.4999H59C60.3261 64.4999 61.5979 63.9732 62.5355 63.0355C63.4732 62.0978 64 60.826 64 59.4999V57.4999C64 56.7043 63.6839 55.9412 63.1213 55.3786C62.5587 54.816 61.7957 54.4999 61 54.4999ZM49 20.4999H54V50.4999H49V20.4999ZM45 2.90994L48.59 6.49994H48C47.7348 6.49994 47.4804 6.6053 47.2929 6.79283C47.1054 6.98037 47 7.23472 47 7.49994V50.4999H43V7.49994C43 7.23472 42.8946 6.98037 42.7071 6.79283C42.5196 6.6053 42.2652 6.49994 42 6.49994H41.41L45 2.90994ZM36 50.4999V20.4999H41V50.4999H36ZM41 16.4999V18.4999H38.41L36.41 16.4999H41ZM32 14.9099L35.59 18.4999H35C34.7348 18.4999 34.4804 18.6053 34.2929 18.7928C34.1054 18.9804 34 19.2347 34 19.4999V50.4999H30V19.4999C30 19.2347 29.8946 18.9804 29.7071 18.7928C29.5196 18.6053 29.2652 18.4999 29 18.4999H28.41L32 14.9099ZM23 50.4999V32.4999H25C25.1986 32.5011 25.3931 32.4431 25.5586 32.3333C25.7241 32.2235 25.8532 32.0669 25.9294 31.8834C26.0055 31.7 26.0254 31.498 25.9863 31.3033C25.9472 31.1085 25.851 30.9298 25.71 30.7899L19.71 24.7899C19.617 24.6962 19.5064 24.6218 19.3846 24.571C19.2627 24.5203 19.132 24.4941 19 24.4941C18.868 24.4941 18.7373 24.5203 18.6154 24.571C18.4936 24.6218 18.383 24.6962 18.29 24.7899C11.83 31.2599 11.73 31.0399 12.08 31.8799C12.43 32.7199 13 32.4999 15 32.4999V50.4999H10V20.4999H28V50.4999H23ZM16 30.4999H15.41L19 26.9099L22.59 30.4999H22C21.7348 30.4999 21.4804 30.6053 21.2929 30.7928C21.1054 30.9804 21 31.2347 21 31.4999V50.4999H17V31.4999C17 31.2347 16.8946 30.9804 16.7071 30.7928C16.5196 30.6053 16.2652 30.4999 16 30.4999ZM6 18.4999C6 17.9695 6.21071 17.4608 6.58579 17.0857C6.96086 16.7107 7.46957 16.4999 8 16.4999H27.59L25.59 18.4999H9C8.73478 18.4999 8.48043 18.6053 8.29289 18.7928C8.10536 18.9804 8 19.2347 8 19.4999V51.4999C8 51.7652 8.10536 52.0195 8.29289 52.207C8.48043 52.3946 8.73478 52.4999 9 52.4999H55C55.2652 52.4999 55.5196 52.3946 55.7071 52.207C55.8946 52.0195 56 51.7652 56 51.4999V19.4999C56 19.2347 55.8946 18.9804 55.7071 18.7928C55.5196 18.6053 55.2652 18.4999 55 18.4999H49V16.4999H56C56.5304 16.4999 57.0391 16.7107 57.4142 17.0857C57.7893 17.4608 58 17.9695 58 18.4999V54.4999H6V18.4999ZM40.13 56.4999L39.46 57.4999H24.54L23.87 56.4999H40.13ZM62 59.4999C62 60.2956 61.6839 61.0586 61.1213 61.6213C60.5587 62.1839 59.7957 62.4999 59 62.4999H5C4.20435 62.4999 3.44129 62.1839 2.87868 61.6213C2.31607 61.0586 2 60.2956 2 59.4999V57.4999C2 57.2347 2.10536 56.9804 2.29289 56.7928C2.48043 56.6053 2.73478 56.4999 3 56.4999H21.46L23.17 59.0499C23.59 59.6899 22.76 59.4999 40 59.4999C40.69 59.4999 40.74 59.1999 42.54 56.4999H61C61.2652 56.4999 61.5196 56.6053 61.7071 56.7928C61.8946 56.9804 62 57.2347 62 57.4999V59.4999Z" fill="#FEB101"/>
</g>
<defs>
<clipPath id="clip0_4157_41934">
<rect width="64" height="64" fill="white" transform="translate(0 0.5)"/>
</clipPath>
</defs>
</svg>
