<svg width="64" height="64" viewBox="0 0 64 64" fill="none" xmlns="http://www.w3.org/2000/svg">
<path d="M60.2109 48.7174H39.0696L31.9691 55.8245L24.8687 48.7174H3.72656V11.4685H48.5486V9.70898H1.96875V50.4769H24.1406L31.9691 58.3131L39.7972 50.4769H61.9688V14.2042H60.2109V48.7174Z" fill="#FEB101"/>
<path d="M57.2812 37.3984H59.0391V46.3973H57.2812V37.3984Z" fill="#FEB101"/>
<path d="M57.943 5.23926H55.5784L51.0363 9.78618L57.4263 16.1824L61.9688 11.6359V9.26895L57.943 5.23926ZM57.4263 13.6942L53.5225 9.78618L54.5317 8.77555L58.4363 12.6835L57.4263 13.6942ZM55.775 7.53105L56.3068 6.99879H57.2153L60.2109 9.99732V10.9071L59.6796 11.439L55.775 7.53105Z" fill="#FEB101"/>
<path d="M51.2439 12.0677L50.0006 10.8232L40.7721 20.0611H11.2855V21.8207H39.0143L34.9259 25.9131H11.2855V27.6726H33.1681C31.4612 29.3812 32.3167 28.5249 29.7279 31.1158L29.554 31.7646H11.2855V33.5241H29.083L27.9877 37.6165H11.2855V39.376H28.689L28.7904 39.4779L36.1179 37.5124L40.1023 33.5241H52.6523V31.7646H41.8601L45.9485 27.6726H52.6523V25.9131H47.7063L56.391 17.2199L55.1477 15.9754L36.9496 34.1913L33.0454 30.2833L51.2439 12.0677ZM31.4465 36.9438L29.8748 37.365L30.2959 35.7921L31.4465 36.9438ZM35.2083 35.935L33.4069 36.4178L30.821 33.8298L31.3037 32.0267L31.8025 31.5274L35.7067 35.4354L35.2083 35.935Z" fill="#FEB101"/>
<path d="M22.9948 14.4011H12.8086V12.6416H22.9948V14.4011ZM11.6367 14.4011H9.87891V12.6416H11.6367V14.4011ZM8.70703 14.4011H6.94922V12.6416H8.70703V14.4011Z" fill="#FEB101"/>
<path d="M36.7822 31.6956L35.5389 30.4511L48.3867 17.5904L49.63 18.8349L36.7822 31.6956ZM50.4587 18.0053L49.2158 16.7608L50.4587 15.517L51.7017 16.7615L50.4587 18.0053ZM52.53 15.9316L51.2871 14.6875L52.53 13.4434L53.7733 14.6875L52.53 15.9316Z" fill="#FEB101"/>
</svg>
