<svg width="64" height="65" viewBox="0 0 64 65" fill="none" xmlns="http://www.w3.org/2000/svg">
<path fill-rule="evenodd" clip-rule="evenodd" d="M16.7913 14.4932C16.0927 14.4932 15.5246 15.0612 15.5246 15.7586L15.5248 19.0994C15.5248 19.7982 16.0926 20.366 16.7912 20.366H47.2087C47.9061 20.366 48.4739 19.7982 48.4739 19.0994V15.7586C48.4739 15.0612 47.9061 14.4934 47.2087 14.4934L16.7913 14.4932ZM47.2087 21.3506H16.7913C15.5504 21.3506 14.5402 20.3405 14.5402 19.0994V15.7586C14.5402 14.5177 15.5503 13.5088 16.7912 13.5088H47.2087C48.4497 13.5088 49.4585 14.5177 49.4585 15.7586V19.0994C49.4585 20.3405 48.4496 21.3506 47.2087 21.3506Z" fill="#FEB101"/>
<path fill-rule="evenodd" clip-rule="evenodd" d="M22.841 21.1384C22.5692 21.1384 22.3486 20.918 22.3486 20.6462L22.3488 14.212C22.3488 13.9402 22.5692 13.7197 22.8408 13.7197C23.1128 13.7197 23.3332 13.9402 23.3332 14.212V20.6462C23.3332 20.918 23.1126 21.1384 22.841 21.1384Z" fill="#FEB101"/>
<path fill-rule="evenodd" clip-rule="evenodd" d="M17.7386 19.4645C17.6118 19.4645 17.4861 19.4171 17.3899 19.321L16.6041 18.5351C16.4118 18.3427 16.4118 18.0312 16.6041 17.839C16.7965 17.6466 17.1079 17.6466 17.3001 17.839L17.7386 18.2761L20.4783 15.5377C20.6705 15.3455 20.9821 15.3455 21.1743 15.5377C21.3667 15.7288 21.3667 16.0416 21.1743 16.2327L18.0861 19.3208C17.9899 19.4171 17.8642 19.4645 17.7386 19.4645Z" fill="#FEB101"/>
<path fill-rule="evenodd" clip-rule="evenodd" d="M39.363 16.7004H24.637C24.3652 16.7004 24.1446 16.48 24.1446 16.2082C24.1448 15.9364 24.3652 15.716 24.637 15.716L39.363 15.7158C39.6348 15.7158 39.8552 15.9364 39.8552 16.2082C39.8552 16.48 39.6347 16.7004 39.363 16.7004Z" fill="#FEB101"/>
<path fill-rule="evenodd" clip-rule="evenodd" d="M37.2632 18.8996H26.7368C26.465 18.8996 26.2445 18.6791 26.2445 18.4074C26.2446 18.1343 26.465 17.915 26.7368 17.915H37.2632C37.5348 17.915 37.7554 18.1343 37.7554 18.4074C37.7554 18.6791 37.5348 18.8996 37.2632 18.8996Z" fill="#FEB101"/>
<path fill-rule="evenodd" clip-rule="evenodd" d="M16.7913 24.5139C16.0927 24.5139 15.5246 25.0819 15.5246 25.7805L15.5248 29.1214C15.5248 29.8187 16.0926 30.3867 16.7912 30.3867H47.2087C47.9061 30.3867 48.4739 29.8187 48.4739 29.1214V25.7805C48.4739 25.0819 47.9061 24.5139 47.2087 24.5139H16.7913ZM47.2087 31.3712H16.7913C15.5504 31.3712 14.5402 30.3623 14.5402 29.1214V25.7805C14.5402 24.5396 15.5503 23.5294 16.7912 23.5294L47.2087 23.5293C48.4497 23.5293 49.4585 24.5396 49.4585 25.7805V29.1214C49.4585 30.3623 48.4496 31.3712 47.2087 31.3712Z" fill="#FEB101"/>
<path fill-rule="evenodd" clip-rule="evenodd" d="M22.841 31.16C22.5692 31.16 22.3486 30.9396 22.3486 30.6678L22.3488 24.2336C22.3488 23.9618 22.5692 23.7412 22.8408 23.7412C23.1128 23.7412 23.3332 23.9618 23.3332 24.2336V30.6678C23.3332 30.9396 23.1126 31.16 22.841 31.16Z" fill="#FEB101"/>
<path fill-rule="evenodd" clip-rule="evenodd" d="M17.7386 29.4872C17.6118 29.4872 17.4861 29.4398 17.3899 29.3437L16.6041 28.5579C16.4118 28.3656 16.4118 28.0541 16.6041 27.8617C16.7965 27.6695 17.1079 27.6695 17.3001 27.8617L17.7386 28.2989L20.4783 25.5593C20.6705 25.3669 20.9821 25.3669 21.1743 25.5593C21.3667 25.7515 21.3667 26.0632 21.1743 26.2554L18.0861 29.3437C17.9899 29.4398 17.8642 29.4874 17.7386 29.4872Z" fill="#FEB101"/>
<path fill-rule="evenodd" clip-rule="evenodd" d="M39.363 26.7227H24.637C24.3652 26.7227 24.1446 26.5023 24.1446 26.2305C24.1448 25.9587 24.3652 25.7383 24.637 25.7383H39.363C39.6348 25.7383 39.8552 25.9587 39.8552 26.2305C39.8552 26.5023 39.6347 26.7229 39.363 26.7227Z" fill="#FEB101"/>
<path fill-rule="evenodd" clip-rule="evenodd" d="M37.2632 28.9201H26.7368C26.465 28.9201 26.2445 28.6996 26.2445 28.4278C26.2446 28.156 26.465 27.9355 26.7368 27.9355H37.2632C37.5348 27.9355 37.7554 28.156 37.7554 28.4278C37.7554 28.6996 37.5348 28.9201 37.2632 28.9201Z" fill="#FEB101"/>
<path fill-rule="evenodd" clip-rule="evenodd" d="M16.7913 34.5364C16.0927 34.5364 15.5246 35.1042 15.5246 35.8029L15.5248 39.1425C15.5248 39.8411 16.0926 40.409 16.7912 40.409H47.2087C47.9061 40.409 48.4739 39.8411 48.4739 39.1425V35.8029C48.4739 35.1042 47.9061 34.5364 47.2087 34.5364H16.7913ZM47.2087 41.3936H16.7913C15.5504 41.3936 14.5402 40.3834 14.5402 39.1425V35.8029C14.5402 34.5619 15.5503 33.5518 16.7912 33.5518H47.2087C48.4497 33.5518 49.4585 34.5619 49.4585 35.8029V39.1425C49.4585 40.3834 48.4496 41.3936 47.2087 41.3936Z" fill="#FEB101"/>
<path fill-rule="evenodd" clip-rule="evenodd" d="M22.841 41.1825C22.5692 41.1825 22.3486 40.9619 22.3486 40.6901L22.3488 34.2559C22.3488 33.9841 22.5692 33.7637 22.8408 33.7637C23.1128 33.7637 23.3332 33.9841 23.3332 34.2559V40.6901C23.3332 40.9619 23.1126 41.1825 22.841 41.1825Z" fill="#FEB101"/>
<path fill-rule="evenodd" clip-rule="evenodd" d="M39.363 36.8664H24.637C24.3652 36.8664 24.1446 36.6459 24.1446 36.3742C24.1448 36.1024 24.3652 35.8818 24.637 35.8818H39.363C39.6348 35.8818 39.8552 36.1024 39.8552 36.3742C39.8552 36.6459 39.6347 36.8664 39.363 36.8664Z" fill="#FEB101"/>
<path fill-rule="evenodd" clip-rule="evenodd" d="M37.2632 39.0647H26.7368C26.465 39.0647 26.2445 38.8441 26.2445 38.5723C26.2446 38.3007 26.465 38.0801 26.7368 38.0801H37.2632C37.5348 38.0801 37.7554 38.3007 37.7554 38.5723C37.7554 38.8441 37.5348 39.0647 37.2632 39.0647Z" fill="#FEB101"/>
<path fill-rule="evenodd" clip-rule="evenodd" d="M17.3553 39.5905C17.2285 39.5905 17.1027 39.5431 17.0066 39.4469C16.8144 39.2546 16.8144 38.9431 17.0066 38.7507L20.2526 35.4997C20.4449 35.3074 20.7565 35.3074 20.9487 35.4997C21.1411 35.692 21.1411 36.0035 20.9487 36.1959L17.7027 39.4469C17.6067 39.5431 17.481 39.5905 17.3553 39.5905Z" fill="#FEB101"/>
<path fill-rule="evenodd" clip-rule="evenodd" d="M20.6026 39.5872C20.477 39.5872 20.3513 39.5398 20.2551 39.4437L17.0041 36.1977C16.8119 36.0053 16.8117 35.6938 17.0041 35.5016C17.1963 35.3094 17.5078 35.3094 17.7002 35.5016L20.9513 38.7476C21.1436 38.9399 21.1436 39.2513 20.9512 39.4437C20.8551 39.5398 20.7294 39.5872 20.6026 39.5872Z" fill="#FEB101"/>
<path fill-rule="evenodd" clip-rule="evenodd" d="M3.28052 5.70125C2.01526 5.70125 0.984599 6.73073 0.984599 7.99732V45.4989C0.984599 46.7642 2.01526 47.795 3.28052 47.795H60.7195C61.9847 47.795 63.0154 46.7642 63.0154 45.4989V7.99732C63.0154 6.73073 61.9847 5.70125 60.7193 5.70125H3.28052ZM60.7195 48.7794H3.28052C1.47166 48.7794 0 47.3078 0 45.4989V7.99732C0 6.18845 1.47166 4.7168 3.28052 4.7168H60.7195C62.5282 4.7168 64 6.18845 64 7.99732V45.4989C64 47.3078 62.5282 48.7794 60.7195 48.7794Z" fill="#FEB101"/>
<path fill-rule="evenodd" clip-rule="evenodd" d="M4.50105 44.2787H59.4989V9.218H4.50105V44.2787ZM59.9912 45.2633H4.00867C3.73702 45.2633 3.51645 45.0429 3.51645 44.7711V8.72577C3.51645 8.45397 3.73687 8.2334 4.00867 8.2334H59.9912C60.2631 8.2334 60.4835 8.45397 60.4835 8.72577V44.7711C60.4835 45.0427 60.263 45.2633 59.9912 45.2633Z" fill="#FEB101"/>
<path fill-rule="evenodd" clip-rule="evenodd" d="M43.5269 60.2826H20.4732C20.2489 60.2826 20.0539 60.1313 19.9975 59.9145C19.9399 59.6979 20.0372 59.471 20.2321 59.3609C26.4022 55.893 25.6496 50.9933 25.2447 48.3614C25.2036 48.0936 25.3882 47.841 25.6575 47.7999C25.9254 47.7577 26.1766 47.9436 26.2189 48.2115C26.4946 50.0126 26.6701 51.9588 26.0843 53.9905C25.4869 56.0687 24.1703 57.848 22.1614 59.298H41.8373C39.8297 57.848 38.5131 56.0687 37.9144 53.9905C37.3297 51.9588 37.5041 50.0126 37.7811 48.2115C37.8233 47.9436 38.0746 47.7577 38.3425 47.7999C38.6118 47.841 38.7964 48.0936 38.754 48.3614C38.3502 50.9933 37.5964 55.893 43.7678 59.3609C43.9627 59.471 44.0588 59.6979 44.0024 59.9145C43.9462 60.1313 43.7498 60.2826 43.5269 60.2826Z" fill="#FEB101"/>
</svg>
