<svg width="64" height="64" viewBox="0 0 64 64" fill="none" xmlns="http://www.w3.org/2000/svg">
<path d="M62.0606 25.2703H32C31.7428 25.2703 31.4961 25.1681 31.3143 24.9862C31.1324 24.8044 31.0303 24.5577 31.0303 24.3006V2.61813C31.0303 2.36095 31.1324 2.11431 31.3143 1.93246C31.4961 1.7506 31.7428 1.64844 32 1.64844H56.5042C58.2326 1.65099 59.8895 2.33805 61.1126 3.55927C62.3356 4.7805 63.0251 6.43645 63.0303 8.1648V24.3006C63.0303 24.5577 62.9281 24.8044 62.7463 24.9862C62.5644 25.1681 62.3178 25.2703 62.0606 25.2703ZM32.9697 23.3309H61.0909V8.1648C61.0883 6.95002 60.6039 5.78588 59.7441 4.9278C58.8842 4.06973 57.719 3.58783 56.5042 3.58783H32.9697V23.3309Z" fill="#FEB101"/>
<path d="M32 46.9335H1.93942C1.68224 46.9335 1.4356 46.8313 1.25374 46.6495C1.07189 46.4676 0.969727 46.221 0.969727 45.9638V24.3008C0.969727 24.0436 1.07189 23.7969 1.25374 23.6151C1.4356 23.4332 1.68224 23.3311 1.93942 23.3311H32C32.2572 23.3311 32.5039 23.4332 32.6857 23.6151C32.8676 23.7969 32.9697 24.0436 32.9697 24.3008V45.9638C32.9697 46.221 32.8676 46.4676 32.6857 46.6495C32.5039 46.8313 32.2572 46.9335 32 46.9335ZM2.90912 44.9941H31.0303V25.2704H2.90912V44.9941Z" fill="#FEB101"/>
<path d="M32 25.2703H1.93942C1.68224 25.2703 1.4356 25.1681 1.25374 24.9862C1.07189 24.8044 0.969727 24.5577 0.969727 24.3006V8.1648C0.972291 6.43734 1.65966 4.78137 2.88116 3.55987C4.10266 2.33837 5.75863 1.651 7.48609 1.64844H32C32.2572 1.64844 32.5039 1.7506 32.6857 1.93246C32.8676 2.11431 32.9697 2.36095 32.9697 2.61813V24.3006C32.9697 24.5577 32.8676 24.8044 32.6857 24.9862C32.5039 25.1681 32.2572 25.2703 32 25.2703ZM2.90912 23.3309H31.0303V3.58783H7.48609C6.2722 3.58783 5.10803 4.07005 4.24968 4.92839C3.39134 5.78674 2.90912 6.95091 2.90912 8.1648V23.3309Z" fill="#FEB101"/>
<path d="M62.0606 46.9335H32C31.7428 46.9335 31.4961 46.8313 31.3143 46.6495C31.1324 46.4676 31.0303 46.221 31.0303 45.9638V24.3008C31.0303 24.0436 31.1324 23.7969 31.3143 23.6151C31.4961 23.4332 31.7428 23.3311 32 23.3311H62.0606C62.3178 23.3311 62.5644 23.4332 62.7463 23.6151C62.9281 23.7969 63.0303 24.0436 63.0303 24.3008V45.9638C63.0303 46.221 62.9281 46.4676 62.7463 46.6495C62.5644 46.8313 62.3178 46.9335 62.0606 46.9335ZM32.9697 44.9941H61.0909V25.2704H32.9697V44.9941Z" fill="#FEB101"/>
<path d="M56.5043 54.3614H7.48609C5.75863 54.3588 4.10266 53.6715 2.88116 52.45C1.65966 51.2285 0.972291 49.5725 0.969727 47.845V45.9638C0.969727 45.7067 1.07189 45.46 1.25374 45.2782C1.4356 45.0963 1.68224 44.9941 1.93942 44.9941H62.0606C62.3178 44.9941 62.5645 45.0963 62.7463 45.2782C62.9282 45.46 63.0303 45.7067 63.0303 45.9638V47.845C63.0303 48.7016 62.8615 49.5498 62.5334 50.341C62.2053 51.1322 61.7244 51.851 61.1183 52.4562C60.5122 53.0615 59.7927 53.5413 59.001 53.8682C58.2092 54.1951 57.3608 54.3627 56.5043 54.3614ZM2.90912 46.9335V47.845C2.91168 49.0581 3.39472 50.2208 4.25251 51.0786C5.11031 51.9364 6.27299 52.4195 7.48609 52.422H56.5043C57.7191 52.422 58.8842 51.9401 59.7441 51.082C60.604 50.224 61.0884 49.0598 61.0909 47.845V46.9335H2.90912Z" fill="#FEB101"/>
<path d="M39.6412 62.3516H24.3491C24.0919 62.3516 23.8453 62.2495 23.6634 62.0676C23.4816 61.8858 23.3794 61.6391 23.3794 61.3819V53.4013C23.3794 53.1442 23.4816 52.8975 23.6634 52.7157C23.8453 52.5338 24.0919 52.4316 24.3491 52.4316H39.6412C39.8984 52.4316 40.145 52.5338 40.3269 52.7157C40.5087 52.8975 40.6109 53.1442 40.6109 53.4013V61.3819C40.6109 61.6391 40.5087 61.8858 40.3269 62.0676C40.145 62.2495 39.8984 62.3516 39.6412 62.3516ZM25.3188 60.4122H38.6715V54.371H25.3188V60.4122Z" fill="#FEB101"/>
<path d="M45.7309 62.3515H18.2594C18.0022 62.3515 17.7555 62.2493 17.5737 62.0675C17.3918 61.8856 17.2897 61.639 17.2897 61.3818C17.2897 61.1246 17.3918 60.878 17.5737 60.6961C17.7555 60.5143 18.0022 60.4121 18.2594 60.4121H45.7309C45.9881 60.4121 46.2347 60.5143 46.4166 60.6961C46.5984 60.878 46.7006 61.1246 46.7006 61.3818C46.7006 61.639 46.5984 61.8856 46.4166 62.0675C46.2347 62.2493 45.9881 62.3515 45.7309 62.3515Z" fill="#FEB101"/>
<path d="M47.0304 14.2936C46.2076 14.2936 45.4033 14.0497 44.7192 13.5925C44.0351 13.1354 43.5019 12.4857 43.187 11.7256C42.8722 10.9655 42.7898 10.129 42.9503 9.32206C43.1108 8.5151 43.507 7.77386 44.0888 7.19207C44.6706 6.61028 45.4118 6.21408 46.2188 6.05357C47.0257 5.89305 47.8622 5.97544 48.6223 6.2903C49.3825 6.60516 50.0322 7.13835 50.4893 7.82246C50.9464 8.50657 51.1904 9.31086 51.1904 10.1336C51.1904 11.2369 50.7521 12.295 49.9719 13.0752C49.1918 13.8554 48.1337 14.2936 47.0304 14.2936ZM47.0304 7.91303C46.5912 7.91303 46.1618 8.04326 45.7967 8.28727C45.4315 8.53127 45.1469 8.87808 44.9788 9.28385C44.8107 9.68961 44.7667 10.1361 44.8524 10.5669C44.9381 10.9976 45.1496 11.3933 45.4602 11.7038C45.7707 12.0144 46.1664 12.2259 46.5971 12.3116C47.0279 12.3973 47.4744 12.3533 47.8802 12.1852C48.2859 12.0171 48.6327 11.7325 48.8767 11.3673C49.1207 11.0022 49.251 10.5728 49.251 10.1336C49.251 9.54469 49.017 8.97987 48.6006 8.56343C48.1841 8.14698 47.6193 7.91303 47.0304 7.91303Z" fill="#FEB101"/>
<path d="M54.177 20.9354H39.8837C39.5389 20.9323 39.2005 20.8417 38.9003 20.6721C38.6001 20.5025 38.3479 20.2594 38.1673 19.9657C37.9775 19.6821 37.8659 19.3534 37.8438 19.0129C37.8217 18.6724 37.8898 18.3321 38.0412 18.0263C38.8327 16.3065 40.1005 14.8498 41.6946 13.8286C43.2887 12.8074 45.1421 12.2646 47.0352 12.2646C48.9283 12.2646 50.7817 12.8074 52.3758 13.8286C53.9698 14.8498 55.2377 16.3065 56.0291 18.0263C56.1792 18.3329 56.2456 18.6737 56.2218 19.0142C56.198 19.3548 56.0847 19.683 55.8934 19.9657C55.7134 20.26 55.4614 20.5036 55.161 20.6733C54.8607 20.843 54.522 20.9332 54.177 20.9354ZM47.0206 14.2833C45.4918 14.2727 43.9927 14.7047 42.7039 15.5272C41.4152 16.3496 40.3919 17.5274 39.7576 18.9184L39.8449 18.996H54.177C54.1934 18.9972 54.2097 18.9931 54.2237 18.9844C54.2376 18.9757 54.2484 18.9628 54.2546 18.9475C53.6207 17.56 52.6024 16.3832 51.3203 15.5566C50.0382 14.7299 48.5461 14.288 47.0206 14.2833Z" fill="#FEB101"/>
<path d="M16.9697 14.2936C16.1469 14.2936 15.3426 14.0497 14.6585 13.5925C13.9744 13.1354 13.4412 12.4857 13.1264 11.7256C12.8115 10.9655 12.7291 10.129 12.8896 9.32206C13.0501 8.5151 13.4463 7.77386 14.0281 7.19207C14.6099 6.61028 15.3512 6.21408 16.1581 6.05357C16.9651 5.89305 17.8015 5.97544 18.5617 6.2903C19.3218 6.60516 19.9715 7.13835 20.4286 7.82246C20.8857 8.50657 21.1297 9.31086 21.1297 10.1336C21.1297 11.2369 20.6914 12.295 19.9113 13.0752C19.1311 13.8554 18.073 14.2936 16.9697 14.2936ZM16.9697 7.91303C16.5305 7.91303 16.1012 8.04326 15.736 8.28727C15.3708 8.53127 15.0862 8.87808 14.9181 9.28385C14.75 9.68961 14.7061 10.1361 14.7918 10.5669C14.8774 10.9976 15.0889 11.3933 15.3995 11.7038C15.71 12.0144 16.1057 12.2259 16.5365 12.3116C16.9672 12.3973 17.4137 12.3533 17.8195 12.1852C18.2252 12.0171 18.5721 11.7325 18.8161 11.3673C19.0601 11.0022 19.1903 10.5728 19.1903 10.1336C19.1903 9.54469 18.9563 8.97987 18.5399 8.56343C18.1235 8.14698 17.5586 7.91303 16.9697 7.91303Z" fill="#FEB101"/>
<path d="M24.1261 20.9356H9.82305C9.47954 20.9327 9.14247 20.8421 8.84379 20.6724C8.54512 20.5027 8.29473 20.2595 8.11638 19.9659C7.92507 19.6832 7.81177 19.355 7.78794 19.0145C7.7641 18.6739 7.83057 18.3331 7.98062 18.0265C8.77496 16.31 10.0439 14.8567 11.6376 13.8381C13.2313 12.8196 15.0832 12.2783 16.9746 12.2783C18.8659 12.2783 20.7178 12.8196 22.3115 13.8381C23.9052 14.8567 25.1742 16.31 25.9685 18.0265C26.1186 18.3331 26.185 18.6739 26.1612 19.0145C26.1374 19.355 26.0241 19.6832 25.8327 19.9659C25.6544 20.2595 25.404 20.5027 25.1053 20.6724C24.8067 20.8421 24.4696 20.9327 24.1261 20.9356ZM16.96 14.2835C15.4317 14.2753 13.9336 14.7083 12.6453 15.5305C11.357 16.3527 10.3333 17.5291 9.69699 18.9186L9.78426 18.9962H24.1261C24.1261 18.9962 24.194 18.9962 24.2037 18.9477C23.5681 17.5594 22.5481 16.3823 21.2643 15.5557C19.9806 14.7291 18.4869 14.2876 16.96 14.2835Z" fill="#FEB101"/>
<path d="M16.9697 35.9665C16.1469 35.9665 15.3426 35.7225 14.6585 35.2654C13.9744 34.8083 13.4412 34.1586 13.1264 33.3984C12.8115 32.6383 12.7291 31.8019 12.8896 30.9949C13.0501 30.1879 13.4463 29.4467 14.0281 28.8649C14.6099 28.2831 15.3512 27.8869 16.1581 27.7264C16.9651 27.5659 17.8015 27.6483 18.5617 27.9631C19.3218 28.278 19.9715 28.8112 20.4286 29.4953C20.8857 30.1794 21.1297 30.9837 21.1297 31.8065C21.1297 32.9098 20.6914 33.9679 19.9113 34.748C19.1311 35.5282 18.073 35.9665 16.9697 35.9665ZM16.9697 29.5859C16.5305 29.5859 16.1012 29.7161 15.736 29.9601C15.3708 30.2041 15.0862 30.5509 14.9181 30.9567C14.75 31.3625 14.7061 31.8089 14.7918 32.2397C14.8774 32.6705 15.0889 33.0661 15.3995 33.3767C15.71 33.6872 16.1057 33.8987 16.5365 33.9844C16.9672 34.0701 17.4137 34.0261 17.8195 33.8581C18.2252 33.69 18.5721 33.4054 18.8161 33.0402C19.0601 32.675 19.1903 32.2457 19.1903 31.8065C19.1903 31.2175 18.9563 30.6527 18.5399 30.2363C18.1235 29.8198 17.5586 29.5859 16.9697 29.5859Z" fill="#FEB101"/>
<path d="M24.1261 42.6082H9.82305C9.47991 42.6035 9.14354 42.5121 8.84516 42.3426C8.54679 42.1731 8.2961 41.9309 8.11638 41.6385C7.92507 41.3558 7.81177 41.0276 7.78794 40.6871C7.7641 40.3465 7.83057 40.0058 7.98062 39.6991C8.77204 37.9794 10.0399 36.5226 11.634 35.5014C13.228 34.4803 15.0815 33.9375 16.9746 33.9375C18.8677 33.9375 20.7211 34.4803 22.3152 35.5014C23.9092 36.5226 25.1771 37.9794 25.9685 39.6991C26.1186 40.0058 26.185 40.3465 26.1612 40.6871C26.1374 41.0276 26.0241 41.3558 25.8327 41.6385C25.6544 41.9321 25.404 42.1753 25.1053 42.345C24.8067 42.5147 24.4696 42.6053 24.1261 42.6082ZM16.96 35.9561C15.4317 35.948 13.9336 36.381 12.6453 37.2031C11.357 38.0253 10.3333 39.2017 9.69699 40.5913L9.78426 40.6688H24.1261C24.1383 40.6742 24.1515 40.6769 24.1649 40.6769C24.1782 40.6769 24.1914 40.6742 24.2037 40.6688C23.5752 39.2715 22.5582 38.0843 21.2739 37.2487C19.9896 36.4132 18.4922 35.9645 16.96 35.9561Z" fill="#FEB101"/>
</svg>
