<svg width="64" height="64" viewBox="0 0 64 64" fill="none" xmlns="http://www.w3.org/2000/svg">
<path d="M38.398 36.9326L37.9016 37.794C37.5565 38.3943 37.7698 39.1678 38.365 39.5094L38.8646 39.797C38.8296 39.9164 38.7974 40.0361 38.7683 40.1555H38.1884C37.4965 40.1555 36.9335 40.7183 36.9335 41.4101V42.3981C36.9335 43.0939 37.4966 43.6601 38.1884 43.6601H38.7689C38.798 43.7789 38.8298 43.898 38.8653 44.0184L38.3656 44.306C37.7656 44.651 37.5573 45.4189 37.9029 46.0195L38.4013 46.8819C38.7508 47.4738 39.5176 47.6803 40.1119 47.3371L40.6148 47.0449C40.7001 47.1343 40.7869 47.2219 40.8763 47.3074L40.5844 47.8135C40.24 48.4125 40.4485 49.1808 41.0451 49.5241L41.902 50.0219C42.5209 50.3768 43.287 50.1469 43.6151 49.5618L43.9083 49.0583C44.0268 49.0933 44.1451 49.1253 44.2629 49.154V49.7349C44.2629 50.4268 44.8291 50.9895 45.5249 50.9895H46.5125C47.2044 50.9895 47.7674 50.4268 47.7674 49.7349V49.1546C47.8865 49.1259 48.0063 49.0935 48.1259 49.0583L48.4133 49.5573C48.7608 50.1651 49.5279 50.3684 50.1296 50.0213L50.9898 49.5258C51.5839 49.1844 51.7929 48.419 51.4519 47.8106L51.16 47.3081C51.2494 47.223 51.3368 47.1356 51.4215 47.0464L51.9276 47.3425C52.5328 47.6806 53.2984 47.4704 53.6389 46.8771L54.1399 46.0118C54.4758 45.4124 54.2661 44.6474 53.672 44.3058L53.1704 44.0184C53.2054 43.8996 53.2376 43.7803 53.2668 43.6601H53.8421C54.5359 43.6601 55.1003 43.0939 55.1003 42.3981V41.4101C55.1003 40.7183 54.5359 40.1555 53.8421 40.1555H53.268C53.2383 40.0345 53.2065 39.915 53.1716 39.797L53.6726 39.5096C54.2674 39.1683 54.4771 38.4013 54.136 37.7929L53.6403 36.933C53.2985 36.3383 52.5296 36.1269 51.9168 36.4723L51.4198 36.7631C51.3344 36.6735 51.2483 36.5878 51.1615 36.5053L51.4611 35.9894C51.7919 35.3826 51.588 34.6345 50.9906 34.2826L50.126 33.7846C49.5293 33.4478 48.7643 33.6539 48.4129 34.2519L48.1275 34.7519C48.0078 34.716 47.888 34.6833 47.7676 34.6539V34.0808C47.7676 33.387 47.2045 32.8223 46.5128 32.8223H45.525C44.8293 32.8223 44.263 33.3869 44.263 34.0808V34.6545C44.1439 34.684 44.0255 34.7163 43.9076 34.7519L43.617 34.2503C43.2746 33.6555 42.509 33.4471 41.898 33.7881L41.0418 34.2859C40.4541 34.6321 40.247 35.3988 40.5849 36.0033L40.8741 36.5049C40.7868 36.5884 40.7006 36.6745 40.6159 36.7634L40.1098 36.4699C39.5176 36.1281 38.7508 36.334 38.398 36.9326ZM40.4193 38.1824C40.7008 38.3458 41.0574 38.2804 41.2639 38.0306C41.535 37.7009 41.8283 37.4084 42.1356 37.1608C42.39 36.9559 42.4573 36.5964 42.2943 36.3133L41.7661 35.3984L42.5026 34.9706L43.034 35.889C43.1971 36.1725 43.5446 36.2929 43.8489 36.1741C44.2346 36.0234 44.6326 35.9143 45.0314 35.8499C45.3524 35.7981 45.5886 35.5208 45.5886 35.1955V34.148H46.4423V35.1955C46.4423 35.521 46.6791 35.7988 47.0001 35.8499C47.3988 35.9136 47.7994 36.023 48.1916 36.1751C48.4959 36.2916 48.8434 36.1706 49.0065 35.8855L49.5288 34.9706L50.2718 35.3988L49.7416 36.3116C49.5759 36.5961 49.6445 36.9581 49.9015 37.163C50.1973 37.3983 50.4918 37.6911 50.7779 38.0339C50.9836 38.2821 51.3416 38.3459 51.6211 38.1811L52.5246 37.652L52.9531 38.3946L52.0413 38.9176C51.7578 39.0801 51.6355 39.4241 51.7513 39.7289C51.8949 40.1055 52.0036 40.5091 52.0743 40.9285C52.128 41.2476 52.4044 41.4813 52.7279 41.4813H53.775V42.3349H52.7279C52.4049 42.3349 52.1286 42.5683 52.0743 42.8866C52.005 43.297 51.8956 43.7021 51.75 44.0914C51.6361 44.3956 51.759 44.7373 52.0413 44.8988L52.9513 45.4204L52.5254 46.1566L51.6213 45.6275C51.3398 45.4618 50.9799 45.5275 50.7734 45.7799C50.5113 46.1006 50.2161 46.396 49.8951 46.6588C49.6428 46.8649 49.578 47.2235 49.7418 47.5046L50.2686 48.4118L49.5289 48.8379L49.0059 47.9289C48.8434 47.6476 48.5043 47.527 48.2014 47.6376C47.793 47.7884 47.3891 47.8965 47.0008 47.958C46.6791 48.0095 46.4423 48.2868 46.4423 48.6126V49.664H45.5886V48.6126C45.5886 48.2871 45.3524 48.0098 45.0308 47.9583C44.6424 47.8958 44.2411 47.788 43.8393 47.6383C43.5364 47.5273 43.1973 47.6464 43.0354 47.9253L42.5028 48.8379L41.7695 48.412L42.2944 47.503C42.4561 47.2228 42.3921 46.8671 42.1429 46.661C41.8206 46.3944 41.5255 46.0979 41.2653 45.7799C41.0594 45.5281 40.7021 45.4631 40.4194 45.6261L39.5114 46.1536L39.0875 45.4204L39.9949 44.8981C40.2739 44.7373 40.3974 44.3991 40.2868 44.0963C40.1334 43.6763 40.0279 43.2824 39.9651 42.8921C39.9134 42.5711 39.6364 42.3349 39.3108 42.3349H38.259V41.4813H39.3108C39.6363 41.4813 39.914 41.2448 39.9651 40.923C40.0285 40.5285 40.136 40.125 40.2855 39.7238C40.3981 39.4205 40.2751 39.0798 39.9949 38.9183L39.0855 38.3946L39.5114 37.6553L40.4193 38.1824Z" fill="#FEB101"/>
<path d="M46.0208 45.7897C48.1604 45.7897 49.9008 44.0475 49.9008 41.9061C49.9008 39.7648 48.1604 38.0225 46.0208 38.0225C43.8773 38.0225 42.1337 39.7647 42.1337 41.9061C42.1337 44.0475 43.8773 45.7897 46.0208 45.7897ZM46.0208 39.3481C47.4292 39.3481 48.5753 40.4956 48.5753 41.9062C48.5753 43.3168 47.429 44.4643 46.0208 44.4643C44.6085 44.4643 43.4592 43.3168 43.4592 41.9062C43.4592 40.4956 44.6087 39.3481 46.0208 39.3481Z" fill="#FEB101"/>
<path d="M7.60451 55.8635H24.6105V62.4858H20.4794C20.113 62.4858 19.8166 62.7825 19.8166 63.1485C19.8166 63.5145 20.113 63.8113 20.4794 63.8113H43.5245C43.8909 63.8113 44.1873 63.5145 44.1873 63.1485C44.1873 62.7825 43.8909 62.4858 43.5245 62.4858H39.396V55.8635H56.402C58.3721 55.8635 59.9746 54.261 59.9746 52.2915V20.3936C59.9746 18.4241 58.3721 16.8216 56.402 16.8216H45.7176C44.7461 14.8393 42.7131 13.4678 40.361 13.4678H21.599C19.2469 13.4678 17.2139 14.8393 16.2424 16.8216H7.60451C5.63114 16.8216 4.02551 18.4241 4.02551 20.3936V52.2916C4.02539 54.261 5.63114 55.8635 7.60451 55.8635ZM38.0705 62.4844H25.936V55.8635H38.0705V62.4844ZM21.599 14.7933H40.3609C42.9206 14.7933 45.0033 16.876 45.0033 19.4356C45.0033 21.9953 42.9205 24.078 40.3609 24.078H21.599C19.0393 24.078 16.9566 21.9953 16.9566 19.4356C16.9566 16.876 19.0394 14.7933 21.599 14.7933ZM21.599 25.4036H40.3609C43.0069 25.4036 45.2533 23.671 46.033 21.2819H55.5204V51.41H8.48601V21.2819H15.927C16.7066 23.671 18.9531 25.4036 21.599 25.4036ZM5.35089 20.3936C5.35089 19.1549 6.36189 18.1471 7.60451 18.1471H15.7751C15.6833 18.5626 15.6311 18.993 15.6311 19.4358C15.6311 19.6115 15.6425 19.7844 15.6575 19.9564H7.82326C7.45689 19.9564 7.16051 20.2531 7.16051 20.6191V52.0728C7.16051 52.4388 7.45689 52.7355 7.82326 52.7355H56.1833C56.5496 52.7355 56.846 52.4388 56.846 52.0728V20.6191C56.846 20.2531 56.5496 19.9564 56.1833 19.9564H46.3025C46.3175 19.7844 46.3289 19.6114 46.3289 19.4358C46.3289 18.993 46.2768 18.5626 46.1849 18.1471H56.402C57.6408 18.1471 58.6491 19.1549 58.6491 20.3936V52.2916C58.6491 53.5304 57.6408 54.5382 56.402 54.5382H7.60451C6.36189 54.5382 5.35089 53.5304 5.35089 52.2916V20.3936Z" fill="#FEB101"/>
<path d="M15.2506 33.9539C15.5095 34.2127 15.929 34.2126 16.1878 33.9539L17.7275 32.4145C17.9864 32.156 17.9864 31.7362 17.7275 31.4774C17.4686 31.2185 17.0493 31.2185 16.7904 31.4774L15.7193 32.5479L15.6099 32.4385C15.351 32.1796 14.9316 32.18 14.6728 32.4381C14.4139 32.697 14.4139 33.1167 14.6728 33.3756L15.2506 33.9539Z" fill="#FEB101"/>
<path d="M21.8275 31.7747H34.5205C34.8869 31.7747 35.1833 31.478 35.1833 31.112C35.1833 30.746 34.8869 30.4492 34.5205 30.4492H21.8275C21.4611 30.4492 21.1648 30.746 21.1648 31.112C21.1648 31.478 21.4613 31.7747 21.8275 31.7747Z" fill="#FEB101"/>
<path d="M21.8275 34.9827H29.9584C30.3248 34.9827 30.6211 34.686 30.6211 34.32C30.6211 33.954 30.3248 33.6572 29.9584 33.6572H21.8275C21.4611 33.6572 21.1648 33.954 21.1648 34.32C21.1648 34.686 21.4613 34.9827 21.8275 34.9827Z" fill="#FEB101"/>
<path d="M21.724 20.6749C21.983 20.9333 22.4023 20.9334 22.6611 20.6746L24.2001 19.1352C24.459 18.8763 24.459 18.4566 24.2001 18.1981C23.9413 17.9392 23.5219 17.9392 23.263 18.1981L22.1925 19.2688L22.0825 19.1588C21.8236 18.9006 21.4043 18.9003 21.1454 19.1592C20.8865 19.4181 20.8865 19.8378 21.1454 20.0967L21.724 20.6749Z" fill="#FEB101"/>
<path d="M28.3003 18.4944H40.9933C41.3596 18.4944 41.656 18.1977 41.656 17.8317C41.656 17.4657 41.3596 17.1689 40.9933 17.1689H28.3003C27.9339 17.1689 27.6375 17.4657 27.6375 17.8317C27.6375 18.1977 27.9339 18.4944 28.3003 18.4944Z" fill="#FEB101"/>
<path d="M28.3003 21.7025H36.4311C36.7975 21.7025 37.0939 21.4057 37.0939 21.0397C37.0939 20.6737 36.7975 20.377 36.4311 20.377H28.3003C27.9339 20.377 27.6375 20.6737 27.6375 21.0397C27.6375 21.4057 27.9339 21.7025 28.3003 21.7025Z" fill="#FEB101"/>
<path d="M28.1967 7.39429C28.4555 7.65316 28.8749 7.65316 29.1338 7.39429L30.6735 5.85491C30.9324 5.59641 30.9324 5.17666 30.6735 4.91779C30.4147 4.65891 29.9953 4.65891 29.7364 4.91779L28.6653 5.98854L28.5559 5.87916C28.297 5.62029 27.8777 5.62029 27.6188 5.87916C27.3599 6.13804 27.3599 6.55741 27.6188 6.81629L28.1967 7.39429Z" fill="#FEB101"/>
<path d="M34.773 5.21515H47.4666C47.833 5.21515 48.1294 4.9184 48.1294 4.5524C48.1294 4.1864 47.833 3.88965 47.4666 3.88965H34.773C34.4066 3.88965 34.1103 4.1864 34.1103 4.5524C34.1103 4.9184 34.4066 5.21515 34.773 5.21515Z" fill="#FEB101"/>
<path d="M34.773 8.42316H42.9045C43.2709 8.42316 43.5673 8.12641 43.5673 7.76041C43.5673 7.39441 43.2709 7.09766 42.9045 7.09766H34.773C34.4066 7.09766 34.1103 7.39441 34.1103 7.76041C34.1103 8.12641 34.4066 8.42316 34.773 8.42316Z" fill="#FEB101"/>
<path d="M29.1442 10.2792C31.4185 10.2792 33.2682 8.42943 33.2682 6.15555C33.2682 3.88293 31.4185 2.03418 29.1442 2.03418C26.8719 2.03418 25.0235 3.88293 25.0235 6.15555C25.0234 8.42943 26.8719 10.2792 29.1442 10.2792ZM29.1442 3.35955C30.6872 3.35955 31.9427 4.6138 31.9427 6.15543C31.9427 7.69843 30.6871 8.95368 29.1442 8.95368C27.6026 8.95368 26.349 7.69843 26.349 6.15543C26.3489 4.6138 27.6025 3.35955 29.1442 3.35955Z" fill="#FEB101"/>
<path d="M16.1988 36.8389C18.473 36.8389 20.3228 34.9889 20.3228 32.7149C20.3228 30.4425 18.473 28.5938 16.1988 28.5938C13.9264 28.5938 12.0774 30.4425 12.0774 32.7149C12.0774 34.9889 13.9264 36.8389 16.1988 36.8389ZM16.1988 29.9193C17.7418 29.9193 18.9973 31.1733 18.9973 32.7149C18.9973 34.2581 17.7416 35.5134 16.1988 35.5134C14.6571 35.5134 13.4028 34.2581 13.4028 32.7149C13.4028 31.1733 14.6571 29.9193 16.1988 29.9193Z" fill="#FEB101"/>
<path d="M28.0718 12.1242H46.8336C50.124 12.1242 52.8015 9.4471 52.8015 6.15635C52.8015 2.8656 50.124 0.188477 46.8336 0.188477H28.0718C24.7814 0.188477 22.1039 2.8656 22.1039 6.15635C22.1039 9.4471 24.7814 12.1242 28.0718 12.1242ZM28.0718 1.51385H46.8336C49.3934 1.51385 51.476 3.5966 51.476 6.15623C51.476 8.71585 49.3934 10.7987 46.8336 10.7987H28.0718C25.512 10.7987 23.4294 8.71598 23.4294 6.15635C23.4294 3.59673 25.5121 1.51385 28.0718 1.51385Z" fill="#FEB101"/>
<path d="M22.6715 23.5586C24.9457 23.5586 26.7955 21.7086 26.7955 19.4346C26.7955 17.1622 24.9457 15.3135 22.6715 15.3135C20.3991 15.3135 18.5508 17.1622 18.5508 19.4346C18.5508 21.7086 20.3991 23.5586 22.6715 23.5586ZM22.6715 16.639C24.2145 16.639 25.47 17.893 25.47 19.4346C25.47 20.9779 24.2144 22.2331 22.6715 22.2331C21.1299 22.2331 19.8762 20.9779 19.8762 19.4346C19.8761 17.893 21.1299 16.639 22.6715 16.639Z" fill="#FEB101"/>
<path d="M15.1257 38.6835H33.8875C37.1779 38.6835 39.8554 36.0064 39.8554 32.7159C39.8554 29.4252 37.1779 26.748 33.8875 26.748H15.1257C11.8353 26.748 9.15778 29.4252 9.15778 32.7159C9.15778 36.0063 11.8353 38.6835 15.1257 38.6835ZM15.1257 28.0735H33.8875C36.4473 28.0735 38.5299 30.1563 38.5299 32.7159C38.5299 35.2757 36.4472 37.358 33.8875 37.358H15.1257C12.5659 37.358 10.4833 35.2757 10.4833 32.7159C10.4833 30.1562 12.566 28.0735 15.1257 28.0735Z" fill="#FEB101"/>
</svg>
