<svg width="64" height="64" viewBox="0 0 64 64" fill="none" xmlns="http://www.w3.org/2000/svg">
<g clip-path="url(#clip0_4157_41812)">
<path d="M4.9475 11.4935L3.41788 13.0231C3.00137 13.4395 2.86875 14.0415 3.07188 14.5944C3.275 15.1469 3.76563 15.5197 4.352 15.5676L14.8116 16.4215C14.8545 16.425 14.897 16.4268 14.9392 16.4268C15.3355 16.4268 15.7045 16.2739 15.9891 15.9891C16.3043 15.674 16.4577 15.2559 16.4215 14.8116L15.5676 4.35225C15.5197 3.7655 15.1469 3.27488 14.5944 3.07188C14.0417 2.86875 13.4395 3.00137 13.0235 3.41762L11.4934 4.9475L7.12725 0.581125C6.35263 -0.1935 5.09212 -0.1935 4.31738 0.581125L0.581125 4.3175C0.206375 4.69213 0 5.191 0 5.72225C0 6.2535 0.206375 6.75237 0.581 7.127L4.9475 11.4935ZM5.72225 2.00463L10.7863 7.06875C11.1769 7.45937 11.81 7.45937 12.2004 7.06875L13.6632 5.606L14.3794 14.3795L5.60588 13.6632L7.06862 12.2005C7.45913 11.81 7.45913 11.1769 7.06862 10.7864L2.00475 5.72225L5.72225 2.00463ZM49.0607 16.4268C49.103 16.4268 49.1455 16.425 49.1884 16.4215L59.6479 15.5676C60.2344 15.5197 60.725 15.1469 60.9284 14.5936C61.1311 14.041 60.9985 13.4391 60.5824 13.0232L59.0525 11.4935L63.4189 7.12712C63.7936 6.7525 64 6.2535 64 5.72225C64 5.191 63.7936 4.69213 63.419 4.3175L59.6826 0.58125C59.3079 0.206375 58.809 0 58.2777 0C57.7465 0 57.2476 0.206375 56.8729 0.581125L52.5065 4.9475L50.9766 3.4175C50.5605 3.00137 49.9584 2.86875 49.4059 3.07188C48.8533 3.27488 48.4804 3.7655 48.4325 4.35213L47.5786 14.8116C47.5424 15.2559 47.6959 15.674 48.0109 15.9889C48.2955 16.2739 48.6644 16.4268 49.0607 16.4268ZM50.3366 5.606L51.7993 7.06875C51.9869 7.25625 52.2411 7.36163 52.5064 7.36163C52.7716 7.36163 53.0259 7.25625 53.2135 7.06875L58.2776 2.00463L61.9951 5.72225L56.931 10.7864C56.5405 11.1769 56.5405 11.81 56.931 12.2005L58.3939 13.6634L49.6204 14.3796L50.3366 5.606ZM59.0525 52.5065L60.5821 50.9769C60.9986 50.5605 61.1312 49.9585 60.9281 49.4056C60.725 48.8531 60.2344 48.4803 59.648 48.4324L49.1884 47.5785C48.7436 47.5421 48.326 47.6959 48.0109 48.0109C47.6958 48.3259 47.5422 48.7441 47.5785 49.1883L48.4324 59.6476C48.4803 60.2344 48.8531 60.725 49.4056 60.928C49.9586 61.1311 50.5601 60.9986 50.9767 60.5822L52.5065 59.0524L56.8727 63.4188C57.2601 63.8061 57.7689 63.9997 58.2776 63.9997C58.7864 63.9997 59.2952 63.8061 59.6825 63.4188L63.4188 59.6824C63.7935 59.3076 63.9999 58.8088 63.9999 58.2775C63.9999 57.7463 63.7935 57.2474 63.4189 56.8727L59.0525 52.5065ZM58.2777 61.9954L53.2137 56.9313C53.0261 56.7438 52.7719 56.6384 52.5066 56.6384C52.2414 56.6384 51.9871 56.7438 51.7995 56.9313L50.3368 58.394L49.6206 49.6204L58.3941 50.3366L56.9314 51.7994C56.5409 52.1899 56.5409 52.823 56.9314 53.2135L61.9955 58.2776L58.2777 61.9954ZM14.8116 47.5784L4.35213 48.4323C3.76563 48.4801 3.275 48.853 3.07188 49.4056C2.86875 49.9584 3.00137 50.5604 3.41762 50.9765L4.9475 52.5064L0.581125 56.8729C0.206375 57.2475 0 57.7465 0 58.2777C0 58.809 0.206375 59.3079 0.581 59.6825L4.31738 63.4189C4.70475 63.8063 5.2135 63.9999 5.72225 63.9999C6.231 63.9999 6.73987 63.8063 7.12712 63.4189L11.4934 59.0525L13.0231 60.5822C13.4394 60.9987 14.0416 61.131 14.5941 60.9281C15.1467 60.7251 15.5196 60.2345 15.5675 59.6479L16.4214 49.1884C16.4576 48.7442 16.3041 48.326 15.9891 48.0111C15.6741 47.6957 15.2565 47.5423 14.8116 47.5784ZM13.6634 58.3939L12.2005 56.9313C11.8104 56.5408 11.1771 56.5406 10.7864 56.9313L5.72237 61.9954L2.00487 58.2777L7.069 53.2136C7.4595 52.8231 7.4595 52.19 7.069 51.7995L5.60625 50.3368L14.3798 49.6205L13.6634 58.3939ZM24.3517 39.9956C24.954 39.1785 25.1204 38.1946 24.8201 37.2253C24.1861 35.1777 22.8874 33.3391 21.1634 32.0482C20.3906 31.4696 19.5539 31.0096 18.6721 30.6735C19.9118 29.6308 20.7015 28.0695 20.7015 26.3266C20.7015 23.1948 18.1535 20.6467 15.0216 20.6467C11.8897 20.6467 9.34175 23.1948 9.34175 26.3266C9.34175 28.0695 10.1315 29.6308 11.371 30.6735C10.4893 31.0096 9.65238 31.4696 8.8795 32.0484C7.1555 33.3392 5.85675 35.1779 5.22275 37.2254C4.9225 38.1949 5.08887 39.1788 5.69112 39.9959C6.29338 40.8129 7.184 41.2627 8.199 41.2627H21.8439C22.8588 41.2626 23.7495 40.8126 24.3517 39.9956ZM11.3416 26.3266C11.3416 24.2975 12.9924 22.6467 15.0215 22.6467C17.0506 22.6467 18.7014 24.2976 18.7014 26.3266C18.7014 28.3553 17.0514 30.0059 15.0227 30.0065C15.0223 30.0065 15.0219 30.0065 15.0214 30.0065C15.021 30.0065 15.0205 30.0065 15.0201 30.0065C12.9918 30.0058 11.3416 28.3553 11.3416 26.3266ZM22.742 38.809C22.5201 39.11 22.218 39.2626 21.8439 39.2626H8.199C7.82513 39.2626 7.523 39.11 7.301 38.809C7.07912 38.5079 7.0225 38.1741 7.13312 37.817C8.20925 34.342 11.3787 32.0071 15.0201 32.0065H15.0215H15.0227C18.6641 32.0071 21.8335 34.342 22.9096 37.817C23.0204 38.1741 22.9639 38.5079 22.742 38.809ZM38.142 43.8889C37.3691 43.3101 36.5324 42.8501 35.6506 42.514C36.8902 41.4712 37.68 39.91 37.68 38.1671C37.68 35.0353 35.132 32.4873 32.0001 32.4873C28.8683 32.4873 26.3202 35.0353 26.3202 38.1671C26.3202 39.91 27.11 41.4714 28.3496 42.5141C27.4679 42.8503 26.631 43.3102 25.8581 43.8889C24.1341 45.1799 22.8354 47.0184 22.2015 49.0658C21.9011 50.0353 22.0674 51.0191 22.6698 51.8364C23.272 52.6534 24.1628 53.1032 25.1776 53.1032H38.8224C39.8372 53.1032 40.728 52.6533 41.3302 51.8364C41.9326 51.0194 42.099 50.0355 41.7988 49.0659C41.1646 47.0184 39.866 45.1799 38.142 43.8889ZM28.3201 38.1671C28.3201 36.138 29.9709 34.4873 32 34.4873C34.0291 34.4873 35.6799 36.138 35.6799 38.1671C35.6799 40.1963 34.0291 41.8471 32 41.8471C29.9709 41.8471 28.3201 40.1963 28.3201 38.1671ZM39.7205 50.6496C39.4986 50.9506 39.1965 51.1032 38.8224 51.1032H25.1776C24.8036 51.1032 24.5015 50.9506 24.2795 50.6496C24.0576 50.3485 24.001 50.0148 24.1117 49.6575C25.1879 46.1821 28.358 43.8471 31.9999 43.8471C35.6418 43.8471 38.8119 46.1821 39.8881 49.6576C39.9989 50.0147 39.9425 50.3485 39.7205 50.6496ZM58.3089 39.9956C58.9111 39.1785 59.0775 38.1946 58.7772 37.2253C58.1432 35.1777 56.8445 33.3391 55.1205 32.0482C54.3477 31.4696 53.511 31.0096 52.6292 30.6735C53.8689 29.6308 54.6586 28.0695 54.6586 26.3266C54.6586 23.1948 52.1106 20.6467 48.9787 20.6467C45.8469 20.6467 43.2989 23.1948 43.2989 26.3266C43.2989 28.0695 44.0886 29.6308 45.3281 30.6735C44.4464 31.0096 43.6095 31.4696 42.8366 32.0484C41.1126 33.3392 39.8139 35.1779 39.1799 37.2254C38.8796 38.1949 39.046 39.1788 39.6483 39.9959C40.2505 40.8129 41.1411 41.2627 42.1561 41.2627H55.801C56.8158 41.2626 57.7065 40.8126 58.3089 39.9956ZM45.2988 26.3266C45.2988 24.2975 46.9495 22.6467 48.9786 22.6467C51.0078 22.6467 52.6585 24.2976 52.6585 26.3266C52.6585 28.3553 51.0085 30.0059 48.9799 30.0065C48.9794 30.0065 48.979 30.0065 48.9785 30.0065C48.9781 30.0065 48.9776 30.0065 48.9772 30.0065C46.9487 30.0058 45.2988 28.3553 45.2988 26.3266ZM41.258 38.809C41.0361 38.5079 40.9795 38.1741 41.0901 37.817C42.1663 34.342 45.3357 32.0071 48.9771 32.0065H48.9785H48.9798C52.6211 32.0071 55.7905 34.342 56.8666 37.817C56.9773 38.1741 56.9207 38.5079 56.6987 38.809C56.4769 39.11 56.1748 39.2626 55.8006 39.2626H42.156C41.7821 39.2626 41.48 39.11 41.258 38.809ZM25.1776 28.1658H38.8224C39.8372 28.1658 40.728 27.7157 41.3302 26.8989C41.9325 26.0819 42.0989 25.098 41.7986 24.1284C41.1646 22.0809 39.8659 20.2424 38.1419 18.9514C37.3691 18.3726 36.5322 17.9126 35.6505 17.5766C36.8901 16.5339 37.6799 14.9726 37.6799 13.2297C37.6799 10.0977 35.1319 7.54975 32 7.54975C28.8681 7.54975 26.3201 10.0977 26.3201 13.2297C26.3201 14.9726 27.1099 16.5339 28.3495 17.5766C27.4678 17.9128 26.6309 18.3727 25.8581 18.9514C24.1341 20.2424 22.8354 22.0809 22.2015 24.1283C21.9011 25.0976 22.0674 26.0815 22.6698 26.8989C23.272 27.7159 24.1628 28.1658 25.1776 28.1658ZM28.3201 13.2297C28.3201 11.2006 29.9709 9.54975 32 9.54975C34.0291 9.54975 35.6799 11.2006 35.6799 13.2297C35.6799 15.2589 34.0291 16.9096 32 16.9096C29.9709 16.9096 28.3201 15.2589 28.3201 13.2297ZM24.1119 24.72C25.188 21.2446 28.3581 18.9096 32 18.9096C35.6419 18.9096 38.812 21.2446 39.8882 24.7201C39.9989 25.0772 39.9424 25.411 39.7204 25.7121C39.4985 26.0131 39.1964 26.1658 38.8223 26.1658H25.1776C24.8036 26.1658 24.5015 26.0131 24.2795 25.7121C24.0576 25.411 24.0013 25.0772 24.1119 24.72Z" fill="#FEB101"/>
</g>
<defs>
<clipPath id="clip0_4157_41812">
<rect width="64" height="64" fill="white"/>
</clipPath>
</defs>
</svg>
