<svg width="64" height="64" viewBox="0 0 64 64" fill="none" xmlns="http://www.w3.org/2000/svg">
<path d="M60.297 60.7999H3.70305C3.42529 60.7999 3.20001 60.5746 3.20001 60.2968V14.3136C3.20001 14.0358 3.42529 13.8105 3.70305 13.8105H60.297C60.5747 13.8105 60.8 14.0358 60.8 14.3136V60.2968C60.8 60.5746 60.5747 60.7999 60.297 60.7999ZM4.20609 59.7938H59.7939V14.8166H4.20609V59.7938Z" fill="#FEB101"/>
<path d="M40.842 60.8001H28.4622C28.1844 60.8001 27.9592 60.5748 27.9592 60.2971V54.9913C27.9592 54.7136 28.1844 54.4883 28.4622 54.4883H40.842C41.1199 54.4883 41.3452 54.7136 41.3452 54.9913V60.2971C41.3452 60.5748 41.1199 60.8001 40.842 60.8001ZM28.9652 59.794H40.3389V55.4945H28.9652V59.794Z" fill="#FEB101"/>
<path d="M56.7591 60.8001H44.3799C44.1021 60.8001 43.8768 60.5748 43.8768 60.2971V54.9913C43.8768 54.7136 44.1021 54.4883 44.3799 54.4883H56.7591C57.0369 54.4883 57.2622 54.7136 57.2622 54.9913V60.2971C57.262 60.5748 57.0369 60.8001 56.7591 60.8001ZM44.8829 59.794H56.256V55.4945H44.8829V59.794Z" fill="#FEB101"/>
<path d="M56.7592 51.9584H28.4622C28.1844 51.9584 27.9592 51.7331 27.9592 51.4552V47.9181C27.9592 47.6403 28.1844 47.415 28.4622 47.415H56.7592C57.0369 47.415 57.2622 47.6403 57.2622 47.9181V51.4552C57.2621 51.7331 57.0369 51.9584 56.7592 51.9584ZM28.9652 50.9523H56.256V48.4214H28.9652V50.9523Z" fill="#FEB101"/>
<path d="M40.842 44.8824H28.4622C28.1844 44.8824 27.9592 44.6571 27.9592 44.3792V32.0001C27.9592 31.7223 28.1844 31.4971 28.4622 31.4971H40.842C41.1199 31.4971 41.3452 31.7223 41.3452 32.0001V44.3792C41.3452 44.6571 41.1199 44.8824 40.842 44.8824ZM28.9652 43.8762H40.3389V32.5031H28.9652V43.8762Z" fill="#FEB101"/>
<path d="M56.7591 44.8824H44.3799C44.1021 44.8824 43.8768 44.6571 43.8768 44.3792V32.0001C43.8768 31.7223 44.1021 31.4971 44.3799 31.4971H56.7591C57.0369 31.4971 57.2622 31.7223 57.2622 32.0001V44.3792C57.262 44.6571 57.0369 44.8824 56.7591 44.8824ZM44.8829 43.8762H56.256V32.5031H44.8829V43.8762Z" fill="#FEB101"/>
<path d="M56.7592 28.966H28.4622C28.1844 28.966 27.9592 28.7408 27.9592 28.463V17.8517C27.9592 17.5739 28.1844 17.3486 28.4622 17.3486H56.7592C57.0369 17.3486 57.2622 17.5738 57.2622 17.8517V28.463C57.2621 28.7409 57.0369 28.966 56.7592 28.966ZM28.9652 27.96H56.256V18.3547H28.9652V27.96Z" fill="#FEB101"/>
<path d="M60.297 14.8176H3.70305C3.42529 14.8176 3.20001 14.5925 3.20001 14.3146V3.70324C3.20001 3.42548 3.42529 3.2002 3.70305 3.2002H60.297C60.5747 3.2002 60.8 3.42548 60.8 3.70324V14.3146C60.8 14.5925 60.5747 14.8176 60.297 14.8176ZM4.20609 13.8115H59.7939V4.20628H4.20609V13.8115Z" fill="#FEB101"/>
<path d="M56.7599 11.2796H53.2228C52.9449 11.2796 52.7196 11.0543 52.7196 10.7765V7.23937C52.7196 6.96161 52.9449 6.73633 53.2228 6.73633H56.7599C57.0377 6.73633 57.263 6.96161 57.263 7.23937V10.7765C57.2628 11.0543 57.0376 11.2796 56.7599 11.2796ZM53.7257 10.2734H56.2566V7.74241H53.7257V10.2734Z" fill="#FEB101"/>
<path d="M50.5699 11.2796H47.0327C46.7549 11.2796 46.5297 11.0543 46.5297 10.7765V7.23937C46.5297 6.96161 46.7549 6.73633 47.0327 6.73633H50.5699C50.8476 6.73633 51.0729 6.96161 51.0729 7.23937V10.7765C51.0729 11.0543 50.8476 11.2796 50.5699 11.2796ZM47.5357 10.2734H50.0667V7.74241H47.5357V10.2734Z" fill="#FEB101"/>
<path d="M44.3799 11.2796H40.842C40.5642 11.2796 40.3389 11.0543 40.3389 10.7765V7.23937C40.3389 6.96161 40.5642 6.73633 40.842 6.73633H44.3799C44.6578 6.73633 44.8831 6.96161 44.8831 7.23937V10.7765C44.8829 11.0543 44.6578 11.2796 44.3799 11.2796ZM41.3451 10.2734H43.8768V7.74241H41.3451V10.2734Z" fill="#FEB101"/>
<path d="M24.9257 11.2796H7.24019C6.96243 11.2796 6.73715 11.0543 6.73715 10.7765V7.23937C6.73715 6.96161 6.96243 6.73633 7.24019 6.73633H24.9257C25.2035 6.73633 25.4287 6.96161 25.4287 7.23937V10.7765C25.4289 11.0543 25.2036 11.2796 24.9257 11.2796ZM7.74323 10.2734H24.4227V7.74241H7.74323V10.2734Z" fill="#FEB101"/>
<path d="M10.7773 18.3547H7.24019C6.96243 18.3547 6.73715 18.1294 6.73715 17.8517C6.73715 17.5739 6.96243 17.3486 7.24019 17.3486H10.7773C11.0551 17.3486 11.2804 17.5738 11.2804 17.8517C11.2804 18.1296 11.0551 18.3547 10.7773 18.3547Z" fill="#FEB101"/>
<path d="M17.8515 18.3547H14.3145C14.0367 18.3547 13.8115 18.1294 13.8115 17.8517C13.8115 17.5739 14.0367 17.3486 14.3145 17.3486H17.8515C18.1293 17.3486 18.3546 17.5738 18.3546 17.8517C18.3546 18.1296 18.1293 18.3547 17.8515 18.3547Z" fill="#FEB101"/>
<path d="M24.9257 18.3547H21.3885C21.1108 18.3547 20.8855 18.1294 20.8855 17.8517C20.8855 17.5739 21.1108 17.3486 21.3885 17.3486H24.9257C25.2034 17.3486 25.4287 17.5738 25.4287 17.8517C25.4287 18.1296 25.2036 18.3547 24.9257 18.3547Z" fill="#FEB101"/>
<path d="M7.24019 25.4279C6.96243 25.4279 6.73715 25.2026 6.73715 24.9248V21.3878C6.73715 21.11 6.96243 20.8848 7.24019 20.8848C7.51795 20.8848 7.74323 21.11 7.74323 21.3878V24.9248C7.74323 25.2026 7.51795 25.4279 7.24019 25.4279Z" fill="#FEB101"/>
<path d="M7.24019 32.5034C6.96243 32.5034 6.73715 32.2781 6.73715 32.0004V28.464C6.73715 28.1862 6.96243 27.9609 7.24019 27.9609C7.51795 27.9609 7.74323 28.1862 7.74323 28.464V32.0004C7.74323 32.2781 7.51795 32.5034 7.24019 32.5034Z" fill="#FEB101"/>
<path d="M7.24019 39.5784C6.96243 39.5784 6.73715 39.3531 6.73715 39.0753V35.5383C6.73715 35.2604 6.96243 35.0352 7.24019 35.0352C7.51795 35.0352 7.74323 35.2604 7.74323 35.5383V39.0755C7.74323 39.3531 7.51795 39.5784 7.24019 39.5784Z" fill="#FEB101"/>
<path d="M7.24019 46.6513C6.96243 46.6513 6.73715 46.426 6.73715 46.1483V42.6125C6.73715 42.3347 6.96243 42.1094 7.24019 42.1094C7.51795 42.1094 7.74323 42.3347 7.74323 42.6125V46.1483C7.74323 46.426 7.51795 46.6513 7.24019 46.6513Z" fill="#FEB101"/>
<path d="M7.24019 53.7262C6.96243 53.7262 6.73715 53.5009 6.73715 53.2231V49.6868C6.73715 49.4089 6.96243 49.1836 7.24019 49.1836C7.51795 49.1836 7.74323 49.4089 7.74323 49.6868V53.2233C7.74323 53.501 7.51795 53.7262 7.24019 53.7262Z" fill="#FEB101"/>
<path d="M7.24019 60.8004C6.96243 60.8004 6.73715 60.5751 6.73715 60.2974V56.7609C6.73715 56.4831 6.96243 56.2578 7.24019 56.2578C7.51795 56.2578 7.74323 56.4831 7.74323 56.7609V60.2974C7.74323 60.5751 7.51795 60.8004 7.24019 60.8004Z" fill="#FEB101"/>
<path d="M24.9257 25.4279C24.6479 25.4279 24.4227 25.2026 24.4227 24.9248V21.3878C24.4227 21.11 24.6479 20.8848 24.9257 20.8848C25.2035 20.8848 25.4287 21.11 25.4287 21.3878V24.9248C25.4289 25.2026 25.2036 25.4279 24.9257 25.4279Z" fill="#FEB101"/>
<path d="M24.9257 32.5034C24.6479 32.5034 24.4227 32.2781 24.4227 32.0004V28.464C24.4227 28.1862 24.6479 27.9609 24.9257 27.9609C25.2035 27.9609 25.4287 28.1862 25.4287 28.464V32.0004C25.4289 32.2781 25.2036 32.5034 24.9257 32.5034Z" fill="#FEB101"/>
<path d="M24.9257 39.5784C24.6479 39.5784 24.4227 39.3531 24.4227 39.0753V35.5383C24.4227 35.2604 24.6479 35.0352 24.9257 35.0352C25.2035 35.0352 25.4287 35.2604 25.4287 35.5383V39.0755C25.4289 39.3531 25.2036 39.5784 24.9257 39.5784Z" fill="#FEB101"/>
<path d="M24.9257 46.6513C24.6479 46.6513 24.4227 46.426 24.4227 46.1483V42.6125C24.4227 42.3347 24.6479 42.1094 24.9257 42.1094C25.2035 42.1094 25.4287 42.3347 25.4287 42.6125V46.1483C25.4289 46.426 25.2036 46.6513 24.9257 46.6513Z" fill="#FEB101"/>
<path d="M24.9257 53.7262C24.6479 53.7262 24.4227 53.5009 24.4227 53.2231V49.6868C24.4227 49.4089 24.6479 49.1836 24.9257 49.1836C25.2035 49.1836 25.4287 49.4089 25.4287 49.6868V53.2233C25.4289 53.501 25.2036 53.7262 24.9257 53.7262Z" fill="#FEB101"/>
<path d="M24.9257 60.8004C24.6479 60.8004 24.4227 60.5751 24.4227 60.2974V56.7609C24.4227 56.4831 24.6479 56.2578 24.9257 56.2578C25.2035 56.2578 25.4287 56.4831 25.4287 56.7609V60.2974C25.4289 60.5751 25.2036 60.8004 24.9257 60.8004Z" fill="#FEB101"/>
<path d="M28.4622 28.9655C28.2586 28.9655 28.067 28.8409 27.9912 28.639C27.9694 28.5808 27.959 28.5211 27.959 28.4625C27.959 28.2589 28.0837 28.0671 28.2857 27.9913L56.5813 17.38C56.8413 17.282 57.1315 17.4144 57.2289 17.6744C57.2508 17.7325 57.2611 17.7922 57.2611 17.8508C57.2611 18.0546 57.1365 18.2462 56.9345 18.322L28.639 28.9333C28.5807 28.9553 28.521 28.9655 28.4622 28.9655Z" fill="#FEB101"/>
<path d="M56.7576 28.9664C56.6989 28.9664 56.6394 28.956 56.5811 28.9342L28.2862 18.3229C28.0844 18.2473 27.9597 18.0555 27.9597 17.8517C27.9597 17.7931 27.9701 17.7335 27.9918 17.6752C28.0894 17.4151 28.3793 17.2832 28.6395 17.3808L56.9344 27.9923C57.1364 28.0681 57.2609 28.2597 57.2609 28.4635C57.2609 28.5221 57.2507 28.5817 57.2288 28.64C57.1532 28.8418 56.9614 28.9664 56.7576 28.9664Z" fill="#FEB101"/>
<path d="M28.4622 51.9581C28.3334 51.9581 28.2048 51.909 28.1065 51.8107C28.0082 51.7124 27.9592 51.5839 27.9592 51.4551C27.9592 51.3262 28.0083 51.1976 28.1065 51.0994L31.6443 47.5622C31.8409 47.3659 32.1594 47.366 32.3557 47.5624C32.4539 47.6607 32.5029 47.7892 32.5029 47.918C32.5029 48.0468 32.4538 48.1755 32.3556 48.2738L28.8178 51.8108C28.7197 51.909 28.591 51.9581 28.4622 51.9581Z" fill="#FEB101"/>
<path d="M31.9992 51.9581C31.8703 51.9581 31.7417 51.909 31.6434 51.8107C31.5452 51.7124 31.4962 51.5837 31.4962 51.455C31.4962 51.3262 31.5453 51.1976 31.6436 51.0994L35.1822 47.5622C35.3788 47.3659 35.6973 47.366 35.8938 47.5624C35.9921 47.6607 36.041 47.7893 36.041 47.9181C36.041 48.0468 35.9918 48.1755 35.8936 48.2738L32.3551 51.8108C32.2568 51.909 32.128 51.9581 31.9992 51.9581Z" fill="#FEB101"/>
<path d="M35.5372 51.9581C35.4083 51.9581 35.2796 51.909 35.1814 51.8107C35.083 51.7124 35.0341 51.5837 35.0341 51.455C35.0341 51.3262 35.0834 51.1976 35.1816 51.0994L38.72 47.5622C38.9166 47.3659 39.2351 47.366 39.4316 47.5624C39.5299 47.6607 39.5788 47.7893 39.5788 47.9181C39.5788 48.0468 39.5296 48.1755 39.4314 48.2738L35.8929 51.8108C35.7946 51.909 35.6659 51.9581 35.5372 51.9581Z" fill="#FEB101"/>
<path d="M39.0743 51.9581C38.9454 51.9581 38.8168 51.909 38.7186 51.8107C38.6202 51.7124 38.5713 51.5837 38.5713 51.455C38.5713 51.3262 38.6204 51.1976 38.7186 51.0994L42.2572 47.5622C42.4537 47.3659 42.7721 47.366 42.9687 47.5624C43.067 47.6607 43.1159 47.7893 43.1159 47.9181C43.1159 48.0468 43.0668 48.1755 42.9686 48.2738L39.43 51.8108C39.3316 51.909 39.203 51.9581 39.0743 51.9581Z" fill="#FEB101"/>
<path d="M42.6113 51.9581C42.4824 51.9581 42.3537 51.909 42.2555 51.8107C42.1572 51.7124 42.1083 51.5837 42.1083 51.455C42.1083 51.3262 42.1574 51.1976 42.2556 51.0994L45.7942 47.5622C45.9908 47.3659 46.3092 47.366 46.5057 47.5624C46.604 47.6607 46.6529 47.7893 46.6529 47.9181C46.6529 48.0468 46.6038 48.1755 46.5056 48.2738L42.967 51.8108C42.8687 51.909 42.74 51.9581 42.6113 51.9581Z" fill="#FEB101"/>
<path d="M46.1492 51.9581C46.0203 51.9581 45.8916 51.909 45.7934 51.8107C45.6951 51.7124 45.6462 51.5837 45.6462 51.455C45.6462 51.3262 45.6953 51.1976 45.7935 51.0994L49.3321 47.5622C49.5287 47.3659 49.8471 47.366 50.0436 47.5624C50.1419 47.6607 50.1908 47.7893 50.1908 47.9181C50.1908 48.0468 50.1417 48.1755 50.0435 48.2738L46.5049 51.8108C46.4066 51.909 46.2779 51.9581 46.1492 51.9581Z" fill="#FEB101"/>
<path d="M49.6871 51.9581C49.5582 51.9581 49.4294 51.909 49.3312 51.8107C49.2329 51.7124 49.184 51.5837 49.184 51.455C49.184 51.3262 49.2332 51.1976 49.3313 51.0994L52.8699 47.5622C53.0665 47.3659 53.385 47.366 53.5815 47.5624C53.6798 47.6607 53.7287 47.7893 53.7287 47.9181C53.7287 48.0468 53.6795 48.1755 53.5813 48.2738L50.0428 51.8108C49.9443 51.909 49.8157 51.9581 49.6871 51.9581Z" fill="#FEB101"/>
<path d="M53.224 51.9581C53.0953 51.9581 52.9665 51.909 52.8683 51.8107C52.77 51.7124 52.7211 51.5837 52.7211 51.455C52.7211 51.3262 52.7703 51.1976 52.8685 51.0994L56.407 47.5622C56.6036 47.3659 56.9221 47.366 57.1186 47.5624C57.2169 47.6607 57.2658 47.7893 57.2658 47.9181C57.2658 48.0468 57.2166 48.1755 57.1184 48.2738L53.5799 51.8108C53.4814 51.909 53.3527 51.9581 53.224 51.9581Z" fill="#FEB101"/>
</svg>
