<svg width="64" height="65" viewBox="0 0 64 65" fill="none" xmlns="http://www.w3.org/2000/svg">
<path d="M24.0469 43.582H26.0508V45.4609H24.0469V43.582Z" fill="#FEB101"/>
<path d="M28.0547 43.582H30.0586V45.4609H28.0547V43.582Z" fill="#FEB101"/>
<path d="M32.0625 43.582H34.0664V45.4609H32.0625V43.582Z" fill="#FEB101"/>
<path d="M56.1094 47.5898H1.87891V15.4023C1.87891 15.3677 1.96924 15.4023 2.00391 15.4023H36.0703V13.5234H2.00391C0.933594 13.5234 0 14.3315 0 15.4023V53.4766C0 54.5469 0.933594 55.4805 2.00391 55.4805H23.0449V61.6172H19.0371V63.4961H39.0762V61.6172H34.9434V55.4805H56.1094C57.1802 55.4805 57.9883 54.5469 57.9883 53.4766V27.4258H56.1094V47.5898ZM33.0645 61.6172H24.9238V55.4805H33.0645V61.6172ZM56.1094 53.6016H2.00391C1.96924 53.6016 1.87891 53.5112 1.87891 53.4766V49.4688H56.1094V53.4766C56.1094 53.5112 56.144 53.6016 56.1094 53.6016Z" fill="#FEB101"/>
<path d="M13.9023 41.4531V34.2222C15.1548 33.8291 15.9062 32.728 15.9062 31.4336C15.9062 30.1392 15.1548 29.0376 13.9023 28.6445V21.4141H12.0234V28.6445C10.8965 29.0376 10.0195 30.1392 10.0195 31.4336C10.0195 32.728 10.8965 33.8291 12.0234 34.2222V41.4531H13.9023ZM13.0254 30.3687C13.6123 30.3687 14.0898 30.8467 14.0898 31.4336C14.0898 32.0205 13.6123 32.498 13.0254 32.498C12.4385 32.498 11.9609 32.0205 11.9609 31.4336C11.9609 30.8467 12.4385 30.3687 13.0254 30.3687Z" fill="#FEB101"/>
<path d="M21.918 41.4531V39.2319C23.1704 38.8389 23.9219 37.7378 23.9219 36.4434C23.9219 35.1489 23.1704 34.0474 21.918 33.6548V21.4141H20.0391V33.6548C18.9121 34.0474 18.0352 35.1489 18.0352 36.4434C18.0352 37.7378 18.9121 38.8389 20.0391 39.2319V41.4531H21.918ZM21.041 35.3789C21.6279 35.3789 22.1055 35.8564 22.1055 36.4434C22.1055 37.0303 21.6279 37.5078 21.041 37.5078C20.4541 37.5078 19.9766 37.0303 19.9766 36.4434C19.9766 35.8564 20.4541 35.3789 21.041 35.3789Z" fill="#FEB101"/>
<path d="M31.9375 31.4336C31.9375 30.1392 31.186 29.0376 29.9336 28.6445V21.4141H28.0547V28.6445C26.9277 29.0376 26.0508 30.1392 26.0508 31.4336C26.0508 32.728 26.9277 33.8291 28.0547 34.2222V41.4531H29.9336V34.2222C31.186 33.8291 31.9375 32.728 31.9375 31.4336ZM29.0566 32.498C28.4697 32.498 27.9922 32.0205 27.9922 31.4336C27.9922 30.8467 28.4697 30.3687 29.0566 30.3687C29.6436 30.3687 30.1211 30.8467 30.1211 31.4336C30.1211 32.0205 29.6436 32.498 29.0566 32.498Z" fill="#FEB101"/>
<path d="M34.0664 26.4238C34.0664 27.7183 34.9434 28.8193 36.0703 29.2124V41.4531H37.9492V29.2124C39.2017 28.8193 39.9531 27.7183 39.9531 26.4238C39.9531 25.1294 39.2017 24.0278 37.9492 23.6348V21.4141H36.0703V23.6348C34.9434 24.0278 34.0664 25.1294 34.0664 26.4238ZM37.0723 27.4883C36.4854 27.4883 36.0078 27.0107 36.0078 26.4238C36.0078 25.8364 36.4854 25.3589 37.0723 25.3589C37.6592 25.3589 38.1372 25.8364 38.1372 26.4238C38.1372 27.0107 37.6592 27.4883 37.0723 27.4883Z" fill="#FEB101"/>
<path d="M44.0859 27.4258V31.6509C42.959 32.0435 42.082 33.145 42.082 34.4395C42.082 35.7339 42.959 36.835 44.0859 37.228V41.4531H45.9648V37.228C47.2173 36.835 47.9688 35.7339 47.9688 34.4395C47.9688 33.145 47.2173 32.0435 45.9648 31.6509V27.4258H44.0859ZM45.0879 35.5039C44.501 35.5039 44.0234 35.0264 44.0234 34.4395C44.0234 33.8525 44.501 33.3745 45.0879 33.3745C45.6748 33.3745 46.1528 33.8525 46.1528 34.4395C46.1528 35.0264 45.6748 35.5039 45.0879 35.5039Z" fill="#FEB101"/>
<path d="M51.0996 10.4551C48.9243 10.4551 47.1548 12.2246 47.1548 14.4004C47.1548 16.5757 48.9243 18.3452 51.0996 18.3452C53.2754 18.3452 55.0449 16.5757 55.0449 14.4004C55.0449 12.2246 53.2754 10.4551 51.0996 10.4551ZM51.0996 16.4668C49.9604 16.4668 49.0332 15.5396 49.0332 14.4004C49.0332 13.2607 49.9604 12.3335 51.0996 12.3335C52.2393 12.3335 53.1665 13.2607 53.1665 14.4004C53.1665 15.5396 52.2393 16.4668 51.0996 16.4668Z" fill="#FEB101"/>
<path d="M64 17.4062V11.5195H59.5557C59.4414 11.144 59.3105 10.8418 59.1606 10.5332L62.3472 7.33105L58.1846 3.16064L54.9668 6.34326C54.6582 6.19336 54.356 6.05859 53.9805 5.94434V1.5H48.0938V5.94434C47.8433 6.05859 47.479 6.18945 47.1704 6.33936L43.9995 3.15283L39.8447 7.31543L43.0352 10.5332C42.8853 10.8418 42.7583 11.144 42.644 11.5195H38.0742V17.4062H42.644C42.7583 17.6567 42.8892 18.021 43.0391 18.3296L39.8525 21.5005L44.0151 25.6553L47.1704 22.4648C47.479 22.6147 47.8433 22.7417 48.0938 22.856V27.4258H53.9805V22.856C54.356 22.7417 54.6582 22.6108 54.9668 22.4609L58.1689 25.6475L62.3394 21.4849L59.1567 18.3296C59.3066 18.021 59.4414 17.6567 59.5557 17.4062H64ZM62.1211 13.3984V15.5273H59.9893C60.0308 15.1519 60.0547 14.8232 60.0547 14.4629C60.0547 14.1025 60.0308 13.6489 59.9893 13.3984H62.1211ZM51.0996 21.4766C47.1978 21.4766 44.0234 18.3022 44.0234 14.4004C44.0234 10.4985 47.1978 7.32373 51.0996 7.32373C55.0015 7.32373 58.1763 10.4985 58.1763 14.4004C58.1763 18.3022 55.0015 21.4766 51.0996 21.4766ZM58.1846 5.80957L59.6904 7.31543L58.1353 8.87012C57.6948 8.31055 57.189 7.80518 56.6299 7.36475L58.1846 5.80957ZM49.9727 3.37891H52.1016V5.51074C51.8511 5.46924 51.3975 5.44531 51.0371 5.44531C50.6768 5.44531 50.3481 5.46924 49.9727 5.51074V3.37891ZM42.5093 7.31543L44.0146 5.80957L45.5698 7.36475C45.0103 7.80518 44.5049 8.31104 44.064 8.87012L42.5093 7.31543ZM39.9531 15.5273V13.3984H42.2104C42.1689 13.6489 42.145 14.1025 42.145 14.4629C42.145 14.8232 42.1689 15.1519 42.2104 15.5273H39.9531ZM44.0151 22.9907L42.5093 21.4849L44.0645 19.9302C44.5049 20.4897 45.0103 20.9951 45.5698 21.436L44.0151 22.9907ZM52.1016 25.5469H49.9727V23.2896C50.3481 23.3311 50.6768 23.355 51.0371 23.355C51.3975 23.355 51.8511 23.3311 52.1016 23.2896V25.5469ZM59.6904 21.4849L58.1846 22.9907L56.6299 21.4355C57.1895 20.9951 57.6948 20.4897 58.1357 19.9302L59.6904 21.4849Z" fill="#FEB101"/>
</svg>
