<svg width="20" height="20" viewBox="0 0 20 20" fill="none" xmlns="http://www.w3.org/2000/svg">
<path fill-rule="evenodd" clip-rule="evenodd" d="M11.668 5.83333C11.668 5.61232 11.7558 5.40036 11.912 5.24408C12.0683 5.0878 12.2803 5 12.5013 5H17.5013C17.7223 5 17.9343 5.0878 18.0906 5.24408C18.2468 5.40036 18.3346 5.61232 18.3346 5.83333C18.3346 6.05435 18.2468 6.26631 18.0906 6.42259C17.9343 6.57887 17.7223 6.66667 17.5013 6.66667H12.5013C12.2803 6.66667 12.0683 6.57887 11.912 6.42259C11.7558 6.26631 11.668 6.05435 11.668 5.83333ZM1.66797 5.83333C1.66797 5.61232 1.75577 5.40036 1.91205 5.24408C2.06833 5.0878 2.28029 5 2.5013 5H4.16797C4.38898 5 4.60094 5.0878 4.75722 5.24408C4.9135 5.40036 5.0013 5.61232 5.0013 5.83333C5.0013 6.05435 4.9135 6.26631 4.75722 6.42259C4.60094 6.57887 4.38898 6.66667 4.16797 6.66667H2.5013C2.28029 6.66667 2.06833 6.57887 1.91205 6.42259C1.75577 6.26631 1.66797 6.05435 1.66797 5.83333ZM1.66797 15C1.66797 14.779 1.75577 14.567 1.91205 14.4107C2.06833 14.2545 2.28029 14.1667 2.5013 14.1667H7.5013C7.72232 14.1667 7.93428 14.2545 8.09056 14.4107C8.24684 14.567 8.33464 14.779 8.33464 15C8.33464 15.221 8.24684 15.433 8.09056 15.5893C7.93428 15.7455 7.72232 15.8333 7.5013 15.8333H2.5013C2.28029 15.8333 2.06833 15.7455 1.91205 15.5893C1.75577 15.433 1.66797 15.221 1.66797 15ZM15.0013 15C15.0013 14.779 15.0891 14.567 15.2454 14.4107C15.4017 14.2545 15.6136 14.1667 15.8346 14.1667H17.5013C17.7223 14.1667 17.9343 14.2545 18.0906 14.4107C18.2468 14.567 18.3346 14.779 18.3346 15C18.3346 15.221 18.2468 15.433 18.0906 15.5893C17.9343 15.7455 17.7223 15.8333 17.5013 15.8333H15.8346C15.6136 15.8333 15.4017 15.7455 15.2454 15.5893C15.0891 15.433 15.0013 15.221 15.0013 15Z" fill="#858C9C"/>
<path fill-rule="evenodd" clip-rule="evenodd" d="M6.66797 2.5H8.33464C8.99768 2.5 9.63356 2.76339 10.1024 3.23223C10.5712 3.70107 10.8346 4.33696 10.8346 5V5.83333C10.8346 6.49637 10.5712 7.13226 10.1024 7.6011C9.63356 8.06994 8.99768 8.33333 8.33464 8.33333H6.66797C6.00493 8.33333 5.36904 8.06994 4.9002 7.6011C4.43136 7.13226 4.16797 6.49637 4.16797 5.83333V5C4.16797 4.33696 4.43136 3.70107 4.9002 3.23223C5.36904 2.76339 6.00493 2.5 6.66797 2.5ZM6.66797 4.16667C6.44696 4.16667 6.23499 4.25446 6.07871 4.41074C5.92243 4.56702 5.83464 4.77899 5.83464 5V5.83333C5.83464 6.05435 5.92243 6.26631 6.07871 6.42259C6.23499 6.57887 6.44696 6.66667 6.66797 6.66667H8.33464C8.55565 6.66667 8.76761 6.57887 8.92389 6.42259C9.08017 6.26631 9.16797 6.05435 9.16797 5.83333V5C9.16797 4.77899 9.08017 4.56702 8.92389 4.41074C8.76761 4.25446 8.55565 4.16667 8.33464 4.16667H6.66797ZM11.668 11.6667H13.3346C13.9977 11.6667 14.6336 11.9301 15.1024 12.3989C15.5712 12.8677 15.8346 13.5036 15.8346 14.1667V15C15.8346 15.663 15.5712 16.2989 15.1024 16.7678C14.6336 17.2366 13.9977 17.5 13.3346 17.5H11.668C11.0049 17.5 10.369 17.2366 9.9002 16.7678C9.43136 16.2989 9.16797 15.663 9.16797 15V14.1667C9.16797 13.5036 9.43136 12.8677 9.9002 12.3989C10.369 11.9301 11.0049 11.6667 11.668 11.6667ZM11.668 13.3333C11.447 13.3333 11.235 13.4211 11.0787 13.5774C10.9224 13.7337 10.8346 13.9457 10.8346 14.1667V15C10.8346 15.221 10.9224 15.433 11.0787 15.5893C11.235 15.7455 11.447 15.8333 11.668 15.8333H13.3346C13.5556 15.8333 13.7676 15.7455 13.9239 15.5893C14.0802 15.433 14.168 15.221 14.168 15V14.1667C14.168 13.9457 14.0802 13.7337 13.9239 13.5774C13.7676 13.4211 13.5556 13.3333 13.3346 13.3333H11.668Z" fill="#858C9C"/>
</svg>
