<svg width="24" height="24" viewBox="0 0 24 24" fill="none" xmlns="http://www.w3.org/2000/svg">
<path d="M22.1251 17.2812H21.34V7.01555C21.339 6.26935 21.0421 5.55401 20.5144 5.02641C19.9867 4.49882 19.2713 4.20204 18.5251 4.20117H5.47512C4.72917 4.20266 4.01423 4.49984 3.48703 5.02757C2.95983 5.5553 2.66336 6.27053 2.66262 7.01648V17.2821H1.87512C1.79195 17.2821 1.71218 17.3151 1.65337 17.374C1.59456 17.4328 1.56152 17.5125 1.56152 17.5957V18.2768C1.56214 18.6805 1.72281 19.0674 2.0083 19.3528C2.2938 19.6383 2.68081 19.7988 3.08449 19.7993H20.9153C21.319 19.7988 21.706 19.6383 21.9915 19.3528C22.277 19.0674 22.4376 18.6805 22.4382 18.2768V17.5948C22.4382 17.5117 22.4053 17.432 22.3466 17.3732C22.2878 17.3144 22.2082 17.2813 22.1251 17.2812ZM3.28746 7.01555C3.28833 6.43561 3.51909 5.87968 3.92917 5.4696C4.33925 5.05952 4.89518 4.82876 5.47512 4.82789H18.5251C19.1053 4.82864 19.6615 5.05947 20.0717 5.46977C20.4819 5.88006 20.7126 6.43631 20.7132 7.01648V17.2821H3.28699L3.28746 7.01555ZM21.8111 18.2759C21.8108 18.5134 21.7164 18.7411 21.5484 18.909C21.3805 19.0769 21.1528 19.1714 20.9153 19.1716H3.08496C2.84746 19.1714 2.61976 19.0769 2.45182 18.909C2.28388 18.7411 2.18943 18.5134 2.18918 18.2759V17.9084H21.8111V18.2759Z" fill="black"/>
<path d="M18.9315 7.03814H16.1776C16.1362 7.03839 16.0954 7.04681 16.0573 7.06289C16.0193 7.07898 15.9848 7.10243 15.9558 7.13189L14.8688 8.21705C14.7718 7.48757 14.4011 6.82226 13.8318 6.35591C13.2626 5.88956 12.5373 5.65706 11.803 5.70552C11.0687 5.75397 10.3803 6.07976 9.87722 6.61687C9.37417 7.15398 9.09412 7.86224 9.0938 8.59814V10.3405L7.72318 11.7102H5.09818C5.05601 11.7085 5.01394 11.7154 4.9745 11.7305C4.93506 11.7455 4.89905 11.7683 4.86864 11.7975C4.83823 11.8268 4.81403 11.8619 4.79751 11.9007C4.78098 11.9396 4.77246 11.9813 4.77246 12.0235C4.77246 12.0657 4.78098 12.1075 4.79751 12.1463C4.81403 12.1852 4.83823 12.2203 4.86864 12.2495C4.89905 12.2788 4.93506 12.3016 4.9745 12.3166C5.01394 12.3316 5.05601 12.3385 5.09818 12.3369H7.85208C7.89341 12.3367 7.93429 12.3284 7.97236 12.3123C8.01042 12.2962 8.0449 12.2727 8.0738 12.2431L9.14302 11.1744C9.2687 11.8802 9.65209 12.5142 10.2188 12.9533H10.1513C9.46408 12.9542 8.80525 13.2275 8.31931 13.7135C7.83337 14.1994 7.55998 14.8583 7.55911 15.5455V16.3799C7.55911 16.463 7.59215 16.5428 7.65096 16.6016C7.70977 16.6604 7.78954 16.6935 7.87271 16.6935C7.95588 16.6935 8.03564 16.6604 8.09445 16.6016C8.15326 16.5428 8.1863 16.463 8.1863 16.3799V15.5455C8.18729 15.0246 8.39464 14.5254 8.76293 14.1571C9.13123 13.7888 9.63046 13.5815 10.1513 13.5805H13.8497C14.3706 13.5815 14.8698 13.7888 15.2381 14.1571C15.6064 14.5254 15.8137 15.0246 15.8147 15.5455V16.3799C15.8147 16.463 15.8478 16.5428 15.9066 16.6016C15.9654 16.6604 16.0452 16.6935 16.1283 16.6935C16.2115 16.6935 16.2913 16.6604 16.3501 16.6016C16.4089 16.5428 16.4419 16.463 16.4419 16.3799V15.5455C16.4411 14.8583 16.1677 14.1994 15.6817 13.7135C15.1958 13.2275 14.537 12.9542 13.8497 12.9533H13.7813C14.1301 12.6841 14.4128 12.3387 14.6078 11.9436C14.8028 11.5484 14.9049 11.1139 14.9063 10.6733V9.06502L16.3055 7.66533H18.9305C18.9717 7.66533 19.0125 7.65722 19.0505 7.64146C19.0886 7.6257 19.1231 7.6026 19.1523 7.57348C19.1814 7.54436 19.2045 7.50979 19.2202 7.47174C19.236 7.43369 19.2441 7.39292 19.2441 7.35173C19.2441 7.31055 19.236 7.26977 19.2202 7.23173C19.2045 7.19368 19.1814 7.15911 19.1523 7.12999C19.1231 7.10087 19.0886 7.07777 19.0505 7.06201C19.0125 7.04625 18.9717 7.03814 18.9305 7.03814H18.9315ZM14.2805 10.6733C14.2805 11.2781 14.0403 11.8582 13.6126 12.2858C13.1849 12.7135 12.6049 12.9538 12.0001 12.9538C11.3952 12.9538 10.8152 12.7135 10.3875 12.2858C9.95985 11.8582 9.71958 11.2781 9.71958 10.6733V8.59814C9.71958 7.99332 9.95985 7.41328 10.3875 6.98561C10.8152 6.55794 11.3952 6.31767 12.0001 6.31767C12.6049 6.31767 13.1849 6.55794 13.6126 6.98561C14.0403 7.41328 14.2805 7.99332 14.2805 8.59814V10.6733Z" fill="black"/>
<path d="M18.9314 8.20336H16.8042C16.7621 8.20173 16.72 8.20863 16.6806 8.22364C16.6411 8.23865 16.6051 8.26147 16.5747 8.29073C16.5443 8.31999 16.5201 8.35509 16.5036 8.39392C16.487 8.43275 16.4785 8.47452 16.4785 8.51672C16.4785 8.55892 16.487 8.60069 16.5036 8.63952C16.5201 8.67835 16.5443 8.71345 16.5747 8.74271C16.6051 8.77197 16.6411 8.79479 16.6806 8.8098C16.72 8.82481 16.7621 8.83171 16.8042 8.83008H18.9314C18.9736 8.83171 19.0157 8.82481 19.0551 8.8098C19.0945 8.79479 19.1305 8.77197 19.161 8.74271C19.1914 8.71345 19.2156 8.67835 19.2321 8.63952C19.2486 8.60069 19.2571 8.55892 19.2571 8.51672C19.2571 8.47452 19.2486 8.43275 19.2321 8.39392C19.2156 8.35509 19.1914 8.31999 19.161 8.29073C19.1305 8.26147 19.0945 8.23865 19.0551 8.22364C19.0157 8.20863 18.9736 8.20173 18.9314 8.20336Z" fill="black"/>
<path d="M5.09818 11.1699H7.22536C7.26753 11.1716 7.3096 11.1647 7.34904 11.1496C7.38848 11.1346 7.42449 11.1118 7.4549 11.0826C7.48532 11.0533 7.50951 11.0182 7.52604 10.9794C7.54256 10.9405 7.55108 10.8988 7.55108 10.8566C7.55108 10.8144 7.54256 10.7726 7.52604 10.7338C7.50951 10.6949 7.48532 10.6598 7.4549 10.6306C7.42449 10.6013 7.38848 10.5785 7.34904 10.5635C7.3096 10.5485 7.26753 10.5416 7.22536 10.5432H5.09818C5.05601 10.5416 5.01394 10.5485 4.9745 10.5635C4.93506 10.5785 4.89905 10.6013 4.86864 10.6306C4.83823 10.6598 4.81403 10.6949 4.79751 10.7338C4.78098 10.7726 4.77246 10.8144 4.77246 10.8566C4.77246 10.8988 4.78098 10.9405 4.79751 10.9794C4.81403 11.0182 4.83823 11.0533 4.86864 11.0826C4.89905 11.1118 4.93506 11.1346 4.9745 11.1496C5.01394 11.1647 5.05601 11.1716 5.09818 11.1699Z" fill="black"/>
</svg>
