<?xml version="1.0" standalone="no"?>
<!DOCTYPE svg PUBLIC "-//W3C//DTD SVG 20010904//EN"
 "http://www.w3.org/TR/2001/REC-SVG-20010904/DTD/svg10.dtd">
<svg version="1.0" xmlns="http://www.w3.org/2000/svg"
 width="1200.000000pt" height="1200.000000pt" viewBox="0 0 1200.000000 1200.000000"
 preserveAspectRatio="xMidYMid meet">

<g transform="translate(0.000000,1200.000000) scale(0.100000,-0.100000)"
fill="#000000" stroke="none">
<path d="M5837 11985 c-309 -59 -563 -271 -677 -567 -48 -125 -60 -221 -60
-493 l0 -243 -35 -6 c-73 -14 -342 -109 -494 -174 -458 -198 -865 -487 -1218
-867 -449 -481 -750 -1073 -883 -1735 -68 -337 -64 -212 -67 -2360 l-4 -1946
-599 -599 -600 -600 0 -297 0 -298 4800 0 4800 0 0 298 0 297 -600 600 -599
599 -4 1946 c-3 2148 1 2023 -67 2360 -185 919 -695 1701 -1467 2248 -300 212
-703 406 -1045 504 l-116 33 -4 280 c-4 245 -7 290 -26 357 -88 321 -333 567
-647 648 -106 28 -283 35 -388 15z m563 -2418 c505 -89 934 -311 1295 -672
311 -310 528 -690 631 -1105 74 -299 68 -93 71 -2567 l3 -2223 -2400 0 -2400
0 3 2228 c3 2482 -3 2274 72 2568 85 332 244 649 459 914 373 460 904 767
1486 859 176 28 190 29 425 26 170 -3 238 -8 355 -28z"/>
<path d="M4804 1118 c46 -548 427 -980 966 -1095 117 -24 343 -24 460 0 243
52 444 160 615 332 208 207 326 464 351 763 l7 82 -1203 0 -1203 0 7 -82z"/>
</g>
</svg>
