<svg width="27" height="29" viewBox="0 0 27 29" fill="none" xmlns="http://www.w3.org/2000/svg">
<path fill-rule="evenodd" clip-rule="evenodd" d="M11.1958 16.6829C11.1955 16.5612 11.1698 16.4408 11.1203 16.3296C11.0709 16.2183 10.9987 16.1187 10.9085 16.0369L3.86479 9.68438C3.68485 9.52087 3.54095 9.32166 3.44227 9.09944C3.34359 8.87723 3.2923 8.63689 3.29167 8.39375V5.07167C3.29167 4.11209 4.07042 3.33334 5.03 3.33334H21.97C22.9296 3.33334 23.7083 4.11209 23.7083 5.07167V8.43896C23.7083 8.90563 23.5217 9.35042 23.1892 9.67855L16.7229 16.0413C16.6409 16.1224 16.5758 16.2189 16.5313 16.3252C16.4867 16.4316 16.4636 16.5457 16.4633 16.661V22.3383C16.4633 22.6154 16.3321 22.875 16.1104 23.0383L12.5813 25.6444C12.4518 25.74 12.2983 25.7977 12.138 25.8112C11.9776 25.8247 11.8167 25.7935 11.673 25.7209C11.5294 25.6483 11.4087 25.5373 11.3245 25.4002C11.2402 25.2631 11.1957 25.1053 11.1958 24.9444V16.6829ZM19.38 17.5185L25.2352 11.7567C26.1248 10.8817 26.625 9.68584 26.625 8.43896V5.07167C26.6254 4.46026 26.5052 3.85477 26.2714 3.28983C26.0376 2.72488 25.6948 2.21157 25.2624 1.77924C24.8301 1.3469 24.3168 1.00403 23.7518 0.770232C23.1869 0.536433 22.5814 0.416289 21.97 0.416673H5.03C4.41859 0.416289 3.8131 0.536433 3.24816 0.770232C2.68321 1.00403 2.1699 1.3469 1.73756 1.77924C1.30523 2.21157 0.96236 2.72488 0.728561 3.28983C0.494761 3.85477 0.374617 4.46026 0.375001 5.07167V8.39375C0.375765 9.04523 0.512925 9.68933 0.777656 10.2846C1.04239 10.8799 1.42882 11.4131 1.91208 11.85L8.27771 17.5929V24.9444C8.27771 28.0506 11.8127 29.8356 14.3123 27.9908L17.8415 25.3848C18.3182 25.0326 18.7057 24.5735 18.9729 24.0445C19.2401 23.5154 19.3795 22.931 19.38 22.3383V17.5185Z" fill="#5C8DB9"/>
<path fill-rule="evenodd" clip-rule="evenodd" d="M0.375 7.70833C0.375 7.32156 0.528645 6.95063 0.802136 6.67714C1.07563 6.40365 1.44656 6.25 1.83333 6.25H23.7083C24.0951 6.25 24.466 6.40365 24.7395 6.67714C25.013 6.95063 25.1667 7.32156 25.1667 7.70833C25.1667 8.09511 25.013 8.46604 24.7395 8.73953C24.466 9.01302 24.0951 9.16667 23.7083 9.16667H1.83333C1.44656 9.16667 1.07563 9.01302 0.802136 8.73953C0.528645 8.46604 0.375 8.09511 0.375 7.70833Z" fill="#5C8DB9"/>
</svg>
