<svg width="52" height="52" viewBox="0 0 52 52" fill="none" xmlns="http://www.w3.org/2000/svg">
<rect width="52" height="52" rx="10" fill="#DDDFE4" fill-opacity="0.7"/>
<path fill-rule="evenodd" clip-rule="evenodd" d="M23.1958 27.6829C23.1955 27.5611 23.1698 27.4408 23.1203 27.3295C23.0709 27.2183 22.9987 27.1186 22.9085 27.0368L15.8648 20.6843C15.6848 20.5208 15.5409 20.3216 15.4423 20.0994C15.3436 19.8772 15.2923 19.6368 15.2917 19.3937V16.0716C15.2917 15.112 16.0704 14.3333 17.03 14.3333H33.97C34.9296 14.3333 35.7083 15.112 35.7083 16.0716V19.4389C35.7083 19.9056 35.5217 20.3504 35.1892 20.6785L28.7229 27.0412C28.6409 27.1223 28.5758 27.2188 28.5313 27.3252C28.4867 27.4316 28.4636 27.5457 28.4633 27.661V33.3383C28.4633 33.6154 28.3321 33.875 28.1104 34.0383L24.5813 36.6443C24.4518 36.7399 24.2983 36.7977 24.138 36.8112C23.9776 36.8247 23.8167 36.7934 23.673 36.7209C23.5294 36.6483 23.4087 36.5373 23.3245 36.4002C23.2402 36.2631 23.1957 36.1053 23.1958 35.9443V27.6829ZM31.38 28.5185L37.2352 22.7566C38.1248 21.8816 38.625 20.6858 38.625 19.4389V16.0716C38.6254 15.4602 38.5052 14.8547 38.2714 14.2898C38.0376 13.7248 37.6948 13.2115 37.2624 12.7792C36.8301 12.3469 36.3168 12.004 35.7518 11.7702C35.1869 11.5364 34.5814 11.4162 33.97 11.4166H17.03C16.4186 11.4162 15.8131 11.5364 15.2482 11.7702C14.6832 12.004 14.1699 12.3469 13.7376 12.7792C13.3052 13.2115 12.9624 13.7248 12.7286 14.2898C12.4948 14.8547 12.3746 15.4602 12.375 16.0716V19.3937C12.3758 20.0452 12.5129 20.6893 12.7777 21.2846C13.0424 21.8798 13.4288 22.4131 13.9121 22.85L20.2777 28.5929V35.9443C20.2777 39.0506 23.8127 40.8356 26.3123 38.9908L29.8415 36.3848C30.3182 36.0325 30.7057 35.5735 30.9729 35.0444C31.2401 34.5153 31.3795 33.931 31.38 33.3383V28.5185Z" fill="#5C8DB9"/>
<path fill-rule="evenodd" clip-rule="evenodd" d="M12.375 18.7083C12.375 18.3216 12.5286 17.9506 12.8021 17.6771C13.0756 17.4036 13.4466 17.25 13.8333 17.25H35.7083C36.0951 17.25 36.466 17.4036 36.7395 17.6771C37.013 17.9506 37.1667 18.3216 37.1667 18.7083C37.1667 19.0951 37.013 19.466 36.7395 19.7395C36.466 20.013 36.0951 20.1667 35.7083 20.1667H13.8333C13.4466 20.1667 13.0756 20.013 12.8021 19.7395C12.5286 19.466 12.375 19.0951 12.375 18.7083Z" fill="#5C8DB9"/>
</svg>
