<svg width="24" height="24" viewBox="0 0 24 24" fill="none" xmlns="http://www.w3.org/2000/svg">
<path d="M18.375 13.807C18.3761 12.1329 17.7167 10.5261 16.5398 9.33555C16.53 9.32255 16.5194 9.31018 16.508 9.29852C16.4961 9.28713 16.4836 9.27648 16.4705 9.26664C15.2803 8.08979 13.6738 7.43015 12 7.43102C10.3261 7.43002 8.71937 8.08968 7.52907 9.26664C7.50279 9.2862 7.47943 9.3094 7.45969 9.33555C6.28305 10.5262 5.62374 12.133 5.625 13.807C5.62394 15.4808 6.28341 17.0875 7.46016 18.2779C7.47001 18.2909 7.48065 18.3033 7.49204 18.3149C7.50386 18.3265 7.51638 18.3373 7.52954 18.3473C8.71989 19.5238 10.3263 20.1833 12 20.1824C13.6738 20.1834 15.2805 19.5239 16.4709 18.3473C16.4971 18.3274 16.5204 18.304 16.5403 18.2779C17.7169 17.0874 18.3762 15.4807 18.375 13.807ZM17.0039 14.182H17.6133C17.5322 15.4131 17.0469 16.583 16.2328 17.5101L15.8044 17.0821C15.7335 17.0148 15.6391 16.9778 15.5413 16.979C15.4435 16.9803 15.3501 17.0197 15.2809 17.0888C15.2118 17.158 15.1724 17.2514 15.1711 17.3492C15.1699 17.447 15.2069 17.5414 15.2742 17.6123L15.7022 18.0402C14.7753 18.8547 13.6053 19.3401 12.3741 19.4212V18.8118C12.3741 18.7123 12.3346 18.617 12.2642 18.5466C12.1939 18.4763 12.0985 18.4368 11.9991 18.4368C11.8996 18.4368 11.8042 18.4763 11.7339 18.5466C11.6636 18.617 11.6241 18.7123 11.6241 18.8118V19.4212C10.3929 19.3397 9.22308 18.8543 8.29594 18.0402L8.72391 17.6123C8.75875 17.5775 8.7864 17.5361 8.80526 17.4906C8.82413 17.4451 8.83385 17.3964 8.83388 17.3471C8.8339 17.2979 8.82422 17.2491 8.80539 17.2036C8.78656 17.1581 8.75896 17.1167 8.72415 17.0819C8.68934 17.047 8.648 17.0194 8.60251 17.0005C8.55701 16.9817 8.50825 16.9719 8.459 16.9719C8.40975 16.9719 8.36097 16.9816 8.31546 17.0004C8.26995 17.0192 8.2286 17.0468 8.19376 17.0816L7.76532 17.5101C6.95119 16.583 6.46592 15.4131 6.38485 14.182H6.99422C7.09368 14.182 7.18906 14.1424 7.25939 14.0721C7.32971 14.0018 7.36922 13.9064 7.36922 13.807C7.36922 13.7075 7.32971 13.6121 7.25939 13.5418C7.18906 13.4715 7.09368 13.432 6.99422 13.432H6.38485C6.46603 12.2008 6.95128 11.031 7.76532 10.1038L8.19376 10.5323C8.26465 10.5996 8.35906 10.6366 8.45684 10.6354C8.55463 10.6341 8.64806 10.5947 8.71721 10.5256C8.78636 10.4564 8.82576 10.363 8.82701 10.2652C8.82827 10.1674 8.79127 10.073 8.72391 10.0021L8.29688 9.57461C9.22395 8.76048 10.3939 8.27521 11.625 8.19414V8.80352C11.625 8.90297 11.6645 8.99835 11.7348 9.06868C11.8052 9.13901 11.9005 9.17852 12 9.17852C12.0995 9.17852 12.1948 9.13901 12.2652 9.06868C12.3355 8.99835 12.375 8.90297 12.375 8.80352V8.19414C13.6061 8.27521 14.7761 8.76048 15.7031 9.57461L15.2752 10.003C15.2078 10.0739 15.1708 10.1684 15.1721 10.2661C15.1733 10.3639 15.2127 10.4574 15.2819 10.5265C15.351 10.5957 15.4444 10.6351 15.5422 10.6363C15.64 10.6376 15.7344 10.6006 15.8053 10.5332L16.2338 10.1048C17.0478 11.0319 17.533 12.2018 17.6142 13.4329H17.0048C16.9054 13.4329 16.81 13.4724 16.7397 13.5427C16.6694 13.6131 16.6298 13.7084 16.6298 13.8079C16.6298 13.9073 16.6694 14.0027 16.7397 14.0731C16.81 14.1434 16.9054 14.1829 17.0048 14.1829L17.0039 14.182ZM18.247 9.01773L19.4498 7.81539C19.4847 7.78056 19.5124 7.7392 19.5312 7.69368C19.5501 7.64816 19.5598 7.59936 19.5598 7.55008C19.5598 7.5008 19.5501 7.452 19.5312 7.40648C19.5124 7.36095 19.4847 7.31959 19.4498 7.28477L18.5217 6.35664C18.4869 6.32177 18.4455 6.29412 18.4 6.27524C18.3545 6.25637 18.3057 6.24666 18.2564 6.24666C18.2071 6.24666 18.1583 6.25637 18.1128 6.27524C18.0673 6.29412 18.0259 6.32177 17.9911 6.35664L16.7888 7.55898C15.6953 6.7177 14.3991 6.18005 13.0313 6.00039V4.67711H14.0002C14.0996 4.67711 14.195 4.6376 14.2653 4.56727C14.3357 4.49695 14.3752 4.40157 14.3752 4.30211V2.69336C14.3752 2.5939 14.3357 2.49852 14.2653 2.42819C14.195 2.35787 14.0996 2.31836 14.0002 2.31836H9.99985C9.90039 2.31836 9.80501 2.35787 9.73468 2.42819C9.66436 2.49852 9.62485 2.5939 9.62485 2.69336V4.30211C9.62485 4.40157 9.66436 4.49695 9.73468 4.56727C9.80501 4.6376 9.90039 4.67711 9.99985 4.67711H10.9688V6.00039C9.60056 6.1803 8.30416 6.71845 7.21079 7.56039L6.00844 6.35664C5.97361 6.32177 5.93226 6.29412 5.88673 6.27524C5.84121 6.25637 5.79241 6.24666 5.74313 6.24666C5.69385 6.24666 5.64505 6.25637 5.59953 6.27524C5.554 6.29412 5.51264 6.32177 5.47782 6.35664L4.54969 7.28477C4.51483 7.31959 4.48717 7.36095 4.4683 7.40648C4.44942 7.452 4.43971 7.5008 4.43971 7.55008C4.43971 7.59936 4.44942 7.64816 4.4683 7.69368C4.48717 7.7392 4.51483 7.78056 4.54969 7.81539L5.7525 9.01773C4.69542 10.3903 4.12308 12.0745 4.125 13.807C4.125 18.1495 7.65797 21.682 12 21.682C16.342 21.682 19.875 18.149 19.875 13.807C19.8769 12.0745 19.3046 10.3903 18.2475 9.01773H18.247ZM18.2564 7.15211L18.6544 7.55008L17.7609 8.44305C17.6334 8.30617 17.5009 8.17367 17.3634 8.04555L18.2564 7.15211ZM10.3748 3.06836H13.6252V3.92711H10.3748V3.06836ZM11.7188 4.67711H12.2813V5.93664C12.1875 5.93336 12.0938 5.93102 12 5.93102C11.9063 5.93102 11.8125 5.93102 11.7188 5.93664V4.67711ZM5.34375 7.55008L5.74172 7.15211L6.63516 8.04555C6.49766 8.17367 6.365 8.30617 6.23719 8.44305L5.34375 7.55008ZM12 20.9324C8.07094 20.9324 4.875 17.736 4.875 13.8074C4.875 9.87883 8.07141 6.68242 12 6.68242C15.9286 6.68242 19.125 9.8793 19.125 13.8074C19.125 17.7355 15.9291 20.9324 12 20.9324ZM13.6795 14.9535C13.7498 15.0239 13.7893 15.1193 13.7893 15.2188C13.7892 15.3182 13.7497 15.4136 13.6793 15.4839C13.6445 15.5187 13.6031 15.5463 13.5576 15.5652C13.5121 15.584 13.4633 15.5937 13.4141 15.5936C13.3146 15.5936 13.2192 15.554 13.1489 15.4837L11.7347 14.0723C11.7263 14.0638 11.7178 14.0545 11.7098 14.0451L11.6995 14.031L11.6883 14.0155C11.6845 14.0099 11.6813 14.0043 11.678 13.9987C11.6749 13.994 11.6721 13.9891 11.6695 13.9841C11.6663 13.9784 11.6634 13.9725 11.6611 13.9663C11.6583 13.9612 11.6559 13.956 11.6536 13.9509C11.6513 13.9457 11.6494 13.9391 11.647 13.9335C11.6447 13.9279 11.6428 13.9223 11.6414 13.9162C11.64 13.9101 11.6381 13.9045 11.6367 13.8988C11.6353 13.8932 11.6334 13.8866 11.6325 13.8805C11.6316 13.8745 11.6325 13.8665 11.6292 13.8595C11.6259 13.8524 11.6292 13.8496 11.6269 13.8445C11.6262 13.8321 11.6262 13.8198 11.6269 13.8074V10.1638C11.6269 10.0644 11.6664 9.96899 11.7367 9.89866C11.807 9.82834 11.9024 9.78883 12.0019 9.78883C12.1013 9.78883 12.1967 9.82834 12.267 9.89866C12.3374 9.96899 12.3769 10.0644 12.3769 10.1638V13.6513L13.6795 14.9535Z" fill="black"/>
</svg>
